<?xml version="1.0" encoding="UTF-8" standalone="no"?>
<!-- Created with Inkscape (http://www.inkscape.org/) -->

<svg
   version="1.1"
   id="svg2"
   width="4172.4268"
   height="4236.5864"
   viewBox="0 0 4172.4268 4236.5864"
   xmlns="http://www.w3.org/2000/svg"
   xmlns:svg="http://www.w3.org/2000/svg">
  <defs
     id="defs6">
    <filter
       style="color-interpolation-filters:sRGB"
       id="filter673"
       x="0"
       y="0"
       width="1"
       height="1">
      <feColorMatrix
         values="1 0 0 0 0 1 0 0 0 0 1 0 0 0 0 0 0 0 0 1 "
         type="matrix"
         result="r"
         in="SourceGraphic"
         id="feColorMatrix645" />
      <feColorMatrix
         values="0 1 0 0 0 0 1 0 0 0 0 1 0 0 0 0 0 0 0 1 "
         type="matrix"
         result="g"
         in="SourceGraphic"
         id="feColorMatrix647" />
      <feColorMatrix
         values="0 0 1 0 0 0 0 1 0 0 0 0 1 0 0 0 0 0 0 1 "
         type="matrix"
         result="b"
         in="SourceGraphic"
         id="feColorMatrix649" />
      <feBlend
         result="minrg"
         in="r"
         mode="darken"
         in2="g"
         id="feBlend651" />
      <feBlend
         result="p"
         in="minrg"
         mode="darken"
         in2="b"
         id="feBlend653" />
      <feBlend
         result="maxrg"
         in="r"
         mode="lighten"
         in2="g"
         id="feBlend655" />
      <feBlend
         result="q"
         in="maxrg"
         mode="lighten"
         in2="b"
         id="feBlend657" />
      <feComponentTransfer
         result="q2"
         in="q"
         id="feComponentTransfer661">
        <feFuncR
           slope="0"
           type="linear"
           id="feFuncR659" />
      </feComponentTransfer>
      <feBlend
         result="pq"
         in="p"
         mode="lighten"
         in2="q2"
         id="feBlend663" />
      <feColorMatrix
         values="-1 1 0 0 0 -1 1 0 0 0 -1 1 0 0 0 0 0 0 0 1 "
         type="matrix"
         result="qminp"
         in="pq"
         id="feColorMatrix665" />
      <feComposite
         k3="1"
         operator="arithmetic"
         result="qminpc"
         in="qminp"
         in2="qminp"
         id="feComposite667"
         k1="0"
         k2="0"
         k4="0" />
      <feBlend
         result="result2"
         in2="SourceGraphic"
         mode="screen"
         id="feBlend669" />
      <feComposite
         operator="in"
         in="result2"
         in2="SourceGraphic"
         result="result1"
         id="feComposite671" />
    </filter>
  </defs>
  <g
     id="g10"
     transform="matrix(1.3333333,0,0,-1.3333333,-580.53332,4784.9599)">
    <g
       id="g12"
       transform="scale(0.1)"
       style="filter:url(#filter673)">
      <path
         d="m 33587.2,20461.2 c -342.4,176.4 -709.1,301.2 -1088,370.4 -595.6,104.8 -1230.8,61.6 -1896,-128 238.8,330.3 452.7,677.9 640,1040 77.6,156.1 45.3,344.4 -80,465.6 -437.2,400.3 -914,754.9 -1423.2,1058.4 605.6,554 1231.2,891.2 1863.2,1002.4 367.9,61.3 743.8,57.5 1110.4,-11.2 v 0 c 1289.2,-226.4 2456.4,-1100.4 2933.6,-1498.4 -295.2,-509.2 -1021.6,-1624 -2060,-2299.2"
         style="fill:#100f0d;fill-opacity:1;fill-rule:nonzero;stroke:none"
         id="path14" />
      <path
         d="m 27394.8,14308 c -274.2,-34.3 -550.5,-50.1 -826.8,-47.2 -250.4,32 -482,50.4 -684.8,60.8 -243,40.3 -480.9,106.9 -709.6,198.4 -10.8,32.8 -21.6,66 -33.2,98 -326.8,898.4 -1018,1692 -2054.8,2360 -179.8,478.4 -315.5,972.2 -405.6,1475.2 520.9,188.1 1059.3,323.9 1607.2,405.2 1100.4,157.6 2012.8,33.2 2711.2,-370.4 66,-40 132.4,-80 198,-125.6 253.4,-178.5 480.6,-391.5 675.2,-632.8 120,-181.2 243.2,-360 372.8,-530.8 145.2,-243.5 272.7,-497.1 381.6,-758.8 228.3,-550.8 396.2,-1124.7 500.8,-1711.6 -560.4,-202.5 -1141.1,-343.4 -1732,-420.4"
         style="fill:#100f0d;fill-opacity:1;fill-rule:nonzero;stroke:none"
         id="path16" />
      <path
         d="m 11301.6,19808 c -833.2,671.2 -1422,1578.4 -1680,2022 393.2,327.6 1253.6,977.2 2262.8,1323.2 212.4,48.4 424.4,104.8 631.6,168.4 379.5,75.1 769.5,81.4 1151.2,18.4 1680,-296.4 2883.2,-2112.4 3284.8,-2802.4 -614,-511.6 -2364.4,-1806.8 -4045.2,-1510.4 -382.2,72 -748.1,212.9 -1080,415.6 -170.8,127.2 -346.8,250 -525.2,365.2"
         style="fill:#100f0d;fill-opacity:1;fill-rule:nonzero;stroke:none"
         id="path18" />
      <path
         d="m 14980.8,27880 17.6,-4.4 c 270,-61.5 535.5,-141.7 794.4,-240 222.4,-114.4 431.6,-210 617.2,-288.8 215.4,-120.3 417.2,-263.4 602,-426.8 0,-34.8 0,-69.2 0,-104.4 0,-1124.8 529.2,-2138.8 1123.6,-2924 5.4,-510 -35.9,-1019.5 -123.2,-1522 -510,1.6 -1018.7,49.5 -1520,143.2 -669.6,720 -1576.4,1418.8 -2684,1614 -34.4,6.4 -68.4,11.6 -102.8,16.4 -131.7,213.6 -239.7,440.9 -322,678 -50,215.2 -107.6,429.2 -171.6,636 -52.4,275.9 -85.5,555.1 -99.2,835.6 -25.7,595.7 13,1192.5 115.2,1780 589.5,-1.6 1177.1,-66.3 1752.8,-192.8"
         style="fill:#100f0d;fill-opacity:1;fill-rule:nonzero;stroke:none"
         id="path20" />
      <path
         d="m 29322.8,20393.2 c -192.3,-208.5 -399.4,-402.9 -619.6,-581.6 -179.6,-116 -357.2,-240 -528.4,-368.8 -217.2,-130.2 -448.1,-236.2 -688.4,-316 -29.6,18.4 -59.2,36.8 -88.4,54 -827.6,477.6 -1867.2,640 -3090.4,486.8 -446.1,250.7 -868.1,541.9 -1260.8,870 256.9,442.5 554.1,860.4 887.6,1248.4 1202.4,274 2123.2,782.4 2736.8,1513.6 22.4,26.8 44.8,54 66.4,80 252.6,7.7 505.3,-12.3 753.6,-59.6 205.6,-62.8 414.8,-120 623.2,-166 267.8,-92.9 528.8,-204.6 780.8,-334.4 528.7,-275.5 1026.1,-607.3 1483.6,-989.6 -299.1,-515.6 -653.2,-997.4 -1056,-1436.8"
         style="fill:#100f0d;fill-opacity:1;fill-rule:nonzero;stroke:none"
         id="path22" />
      <path
         d="m 20000,17818 c -1205.1,0 -2182,976.9 -2182,2182 0,1205.1 976.9,2182 2182,2182 1205.1,0 2182,-976.9 2182,-2182 v 0 c -1.3,-1204.5 -977.5,-2180.7 -2182,-2182"
         style="fill:#100f0d;fill-opacity:1;fill-rule:nonzero;stroke:none"
         id="path24" />
      <path
         d="m 26888.8,26294 c -13.5,-283.4 -47.3,-565.5 -101.2,-844 -62.8,-204.4 -120,-415.2 -168.8,-627.2 -100.7,-293.1 -241.7,-570.9 -418.8,-825.2 -42.8,-61.6 -90,-123.2 -140.8,-183.2 -520,-618 -1333.2,-1047.2 -2421.2,-1275.2 -542.6,-110.8 -1095,-167.4 -1648.8,-168.8 -87.5,502.6 -128.8,1012.2 -123.2,1522.4 594.8,784.8 1124,1800 1124,2923.6 0,35.2 0,70 0,104.8 186.9,166.5 391.4,312 610,434 200,86 400,179.6 594.8,278 262.2,100.7 531.3,182.3 805.2,244.4 582.2,128.8 1176.5,194.4 1772.8,195.6 103,-587.1 141.9,-1183.7 116,-1779.2"
         style="fill:#100f0d;fill-opacity:1;fill-rule:nonzero;stroke:none"
         id="path26" />
      <path
         d="m 21220.4,29265.6 c 7.6,-11.1 15.7,-21.8 24.4,-32 164.2,-216 313.1,-443.2 445.6,-680 85.2,-203.2 181.2,-409.2 284.4,-612 109,-286.4 177.9,-586.4 204.8,-891.6 0.2,-2 0.2,-4 0,-6 6,-74.8 9.6,-150.4 9.6,-226.4 0,-1706.8 -1580.4,-3206.8 -2190,-3722 -418.1,352.6 -800.8,745.3 -1142.4,1172.4 -6.4,9.2 -13.6,18 -20.8,26.8 -538,686.4 -1026,1571.2 -1026,2522.8 4,381.7 75.9,759.6 212.4,1116 92.8,181.2 192.8,391.6 290.8,625.2 516.8,925.6 1298.4,1653.2 1686.8,1981.2 450.7,-380.5 859.8,-807.7 1220.4,-1274.4"
         style="fill:#100f0d;fill-opacity:1;fill-rule:nonzero;stroke:none"
         id="path28" />
      <path
         d="m 11372,16440 c 0.2,1.3 0.2,2.7 0,4 109.1,260.4 236.8,512.6 382,754.8 131.2,173.2 257.6,353.2 376,536 158.4,193.8 337.3,369.9 533.6,525.2 34,-6.8 68,-13.6 102.4,-19.6 214.4,-37.6 431.6,-56.3 649.2,-56 880,0 1720,294 2425.6,654.8 503.8,-83.6 998.9,-212.9 1479.2,-386.4 -97,-545.3 -248.6,-1079.4 -452.4,-1594.4 -413.6,-1032 -977.6,-1760 -1676.4,-2162.8 -66,-40 -134,-73.6 -207.6,-108.4 -280.7,-129.4 -577.9,-219.3 -883.2,-267.2 -214.4,-11.2 -433.2,-30.8 -650.8,-58 -282.2,-3.9 -564.4,11.9 -844.4,47.2 -591,78.2 -1171.8,219.8 -1732.4,422.4 104.8,585.7 272.2,1158.4 499.2,1708.4"
         style="fill:#100f0d;fill-opacity:1;fill-rule:nonzero;stroke:none"
         id="path30" />
      <path
         d="m 15680,11728.8 c -83.9,269.9 -148.4,545.4 -193.2,824.4 -10.8,213.6 -29.6,433.2 -56.4,653.6 -3.4,250.5 20.5,500.7 71.2,746 30.4,16.4 61.2,32.8 90.8,50 826.4,477.2 1487.6,1296.4 1965.2,2432.8 440.2,261 903.5,480.9 1384,656.8 275.8,-480 502.9,-986.4 678,-1511.6 346.4,-1056.8 382.4,-1977.2 106.4,-2735.2 -26,-72.4 -56,-145.2 -89.2,-216.4 -131.2,-279.2 -300.4,-538.8 -502.8,-771.6 -162.4,-152 -320,-308.4 -464,-465.6 -213.1,-184.1 -439,-352.8 -676,-504.8 -503.3,-320.5 -1039.7,-585.6 -1600,-790.8 -296.5,516.6 -535.9,1064 -714,1632.4"
         style="fill:#100f0d;fill-opacity:1;fill-rule:nonzero;stroke:none"
         id="path32" />
      <path
         d="m 22005.2,10887.6 c -238.7,152.9 -466,322.9 -680,508.8 -145.6,156.4 -300,312 -460.8,462 -163.5,189.5 -305.8,396.4 -424.4,616.8 12.8,32.4 25.6,64.4 37.6,96.8 326.4,897.6 306.4,1949.6 -58,3128 170.4,482.7 384.6,948.8 640,1392.4 520.2,-190.3 1019.9,-432.5 1491.6,-722.8 944.4,-586.4 1563.2,-1268 1840,-2026.4 26,-71.6 49.6,-146.4 70.4,-223.2 78.1,-294.7 115.4,-598.8 110.8,-903.6 -24.8,-200 -46.8,-431.2 -58.8,-680 -45.6,-273.3 -110.3,-543 -193.6,-807.2 -179.3,-568.5 -419.6,-1116 -716.8,-1632.8 -559.7,205.2 -1095.5,470.5 -1598,791.2"
         style="fill:#100f0d;fill-opacity:1;fill-rule:nonzero;stroke:none"
         id="path34" />
      <path
         d="M 33760,27943.2 C 33657.2,27366 33356,26070 32610.8,25080 c -381.9,49.1 -768.9,41.1 -1148.4,-23.6 -810.8,-142.8 -1596,-568.8 -2336.8,-1266.8 -266.7,30.5 -531.5,75.7 -793.2,135.2 -213.5,71.7 -431.4,129.5 -652.4,172.8 -143.6,44.4 -268.8,87.2 -369.6,124 18.4,104.4 43.6,232.4 76.4,377.6 72.8,214.4 131.8,433.2 176.4,655.2 79.9,255.8 173.4,507.3 280,753.2 973.6,292.4 1734.8,760 2264.4,1390 245.8,296.4 446.2,627.6 594.8,982.8 1228.4,149.2 2504.4,-238 3057.6,-437.2"
         style="fill:#100f0d;fill-opacity:1;fill-rule:nonzero;stroke:none"
         id="path36" />
      <path
         d="m 30042.4,28880 c -123.9,-351.8 -308.6,-679.2 -545.6,-967.2 -412.8,-492 -1018.4,-865.6 -1800,-1112.8 -8.1,592.1 -76.8,1181.9 -205.2,1760 -41.4,168.6 -186.8,291.2 -360,303.6 -592.5,26 -1186.2,-8.7 -1771.6,-103.6 108,813.2 370.4,1474 782.8,1965.6 242.5,283.6 532.6,522.8 857.2,706.8 1133.6,655.2 2590,736 3211.6,738 108.4,-613.2 279.6,-2061.2 -169.2,-3290.4"
         style="fill:#100f0d;fill-opacity:1;fill-rule:nonzero;stroke:none"
         id="path38" />
      <path
         d="m 25434,34929.2 c 292.4,-508.4 894.8,-1694.8 960,-2932 -324,-208.4 -615.4,-463.6 -864.8,-757.2 -529.2,-630 -857.2,-1461.6 -975.6,-2472 -221.7,-146.1 -450.8,-280.7 -686.4,-403.2 -212.8,-82.8 -419.9,-179.6 -620,-289.6 -137.6,-57.6 -259.6,-105.2 -360,-141.6 -52.4,90.4 -114.4,203.2 -180.8,332.8 -84,216.8 -182.1,427.9 -293.6,632 -125.2,299.3 -230.1,606.6 -314,920 -240,903.6 -240,1699.2 4,2364 131,349.2 322.1,672.8 564.8,956 841.2,1002 2182.8,1576.4 2766.4,1790.8"
         style="fill:#100f0d;fill-opacity:1;fill-rule:nonzero;stroke:none"
         id="path40" />
      <path
         d="m 20000,35887.2 c 449.2,-379.2 1422.4,-1290.4 1905.2,-2427.2 -233.1,-306.1 -419.5,-645.2 -553.2,-1006 -206.8,-567.2 -274.4,-1200 -203.6,-1886.8 -283.6,291.1 -588.4,560.8 -912,806.8 -140.7,102.9 -331.8,102.9 -472.4,0 -323.3,-245.7 -627.9,-515.1 -911.2,-806 63.2,618.8 21.6,1265.6 -204,1886 v 0 c -133.5,361.5 -320,701.2 -553.2,1008 483.2,1136 1455.6,2046.4 1904.4,2425.2"
         style="fill:#100f0d;fill-opacity:1;fill-rule:nonzero;stroke:none"
         id="path42" />
      <path
         d="m 14566.4,34929.2 c 580.8,-212.8 1910,-780.8 2751.2,-1774.8 9.2,-12 18.8,-23.6 29.2,-34.8 235.7,-279.3 421.8,-597 550,-939.2 v 0 c 403.2,-1108.4 64,-2381.6 -315.2,-3291.2 -107.9,-198.5 -203.2,-403.5 -285.2,-614 -68.4,-133.6 -131.6,-248.8 -184.8,-341.2 -100.8,36.8 -224.8,84.8 -364.4,143.6 -196.7,108 -400.2,203.1 -609.2,284.8 -287.7,148.2 -565.2,315.2 -830.8,500 -8.8,6.4 -17.2,12.4 -26.4,18.4 -628,444.8 -1222,1040 -1499.2,1802 -123,348.1 -184.6,714.9 -182,1084 v 2 c -4,1311.2 656.8,2619.6 966.8,3160.4"
         style="fill:#100f0d;fill-opacity:1;fill-rule:nonzero;stroke:none"
         id="path44" />
      <path
         d="m 9787.6,32170.4 c 587.6,0 1917.6,-74.8 3018,-634 18.7,-384.8 94.3,-764.6 224.4,-1127.2 226,-621.2 610.8,-1144 1057.6,-1578 -404.6,41.2 -811.7,52.5 -1218,33.6 -174,-11.6 -320.5,-134.6 -362,-304 -127.7,-578.2 -196.4,-1167.9 -204.8,-1760 -781.6,247.2 -1386.8,620.8 -1800,1112.4 -236.7,288.1 -421.3,615.3 -545.6,966.8 -448.4,1229.2 -277.2,2677.6 -169.6,3290.4"
         style="fill:#100f0d;fill-opacity:1;fill-rule:nonzero;stroke:none"
         id="path46" />
      <path
         d="m 9295.6,28380.4 c 148.4,-355.3 348.86,-686.5 594.8,-982.8 529.2,-630.8 1290.8,-1097.6 2264.4,-1390 106.3,-245.2 199.8,-495.8 280,-750.8 44.4,-222.6 103.5,-442 176.8,-656.8 32.8,-145.2 58,-273.6 76.8,-378.4 -98.4,-35.6 -219.2,-77.2 -360,-120 -227.4,-44.9 -451.6,-104.5 -671.2,-178.4 -258.6,-58.3 -520.2,-102.6 -783.6,-132.8 -740.8,697.6 -1526.4,1123.6 -2336.8,1266.4 -379.51,64.7 -766.55,72.7 -1148.4,23.6 -742.4,987.2 -1045.2,2285.6 -1148.8,2863.6 554,198.8 1830,585.6 3056,436.4"
         style="fill:#100f0d;fill-opacity:1;fill-rule:nonzero;stroke:none"
         id="path48" />
      <path
         d="m 4354,22760 c 476,398 1640,1270 2933.6,1497.6 h 2 c 366.48,68.7 742.2,72.5 1110,11.2 631.6,-111.2 1256.8,-448 1862,-1000 -508.96,-304.1 -985.33,-659.7 -1421.6,-1061.2 -125.75,-120.6 -158.93,-308.8 -82,-465.2 272.85,-526.2 599.1,-1023 973.6,-1482.4 -758,-312.4 -1460.8,-415.2 -2092,-303.6 -366.75,68.4 -718.72,200.4 -1040,390 C 5464.8,21000 4666.4,22221.6 4354,22760"
         style="fill:#100f0d;fill-opacity:1;fill-rule:nonzero;stroke:none"
         id="path50" />
      <path
         d="m 6412.8,19538.8 c 342.22,-176.3 708.56,-301.1 1087.2,-370.4 214.36,-37.5 431.58,-56.2 649.2,-56 625.6,0 1288.4,149.6 1980,446.8 236.8,-118.2 467.1,-248.9 690,-391.6 180.5,-144.8 370.4,-277.4 568.4,-397.2 116.8,-88.4 217.2,-169.2 297.6,-236.4 -53.2,-92.4 -120,-204.8 -202,-330 -141.7,-176.2 -271.7,-361.6 -389.2,-554.8 -198.1,-260.5 -413.5,-507.3 -644.8,-738.8 C 9786,16250.8 9096,15854 8399.6,15731.2 c -367.93,-61.3 -743.78,-57.5 -1110.4,11.2 -1289.2,226 -2457.6,1100.4 -2935.2,1497.6 295.6,508.8 1024,1625.2 2058.8,2298.8"
         style="fill:#100f0d;fill-opacity:1;fill-rule:nonzero;stroke:none"
         id="path52" />
      <path
         d="m 6240,12056.4 c 103.6,578 406.4,1876.4 1148.8,2863.2 166.53,-20.9 334.17,-31.6 502,-32 216.68,-0.4 432.97,18.2 646.4,55.6 595.2,105.2 1177.2,362.8 1738,769.2 -111.1,-391.6 -193,-791 -244.8,-1194.8 -18.8,-173.3 76.8,-338.9 236.4,-409.2 375.6,-157 762.4,-285.8 1157.2,-385.2 -631.6,-282.4 -1146,-657.2 -1535.2,-1120 -245.55,-296.5 -445.98,-627.7 -594.8,-982.8 -1224.4,-150.4 -2500.4,236.8 -3054,436"
         style="fill:#100f0d;fill-opacity:1;fill-rule:nonzero;stroke:none"
         id="path54" />
      <path
         d="m 9957.6,11120 c 124,351.7 308.5,679 545.2,967.2 455.6,542.8 1143.6,941.6 2045.6,1185.2 l 16.8,5.2 c 309.9,81.8 624.9,143.1 942.8,183.6 226.8,5.5 453,25.7 677.2,60.4 149.6,7.6 280,10 388,10.4 18,-104.4 38,-232.8 56.8,-379.6 5,-227.7 24.7,-454.8 58.8,-680 11.8,-266.6 9.6,-533.6 -6.8,-800 -815.6,-609.6 -1371.2,-1308.8 -1652,-2080 -129.3,-362.7 -204.4,-742.6 -222.8,-1127.2 -1100.8,-560 -2432.4,-632.4 -3019.6,-634 -107.6,611.2 -278.8,2059.6 170,3288.8"
         style="fill:#100f0d;fill-opacity:1;fill-rule:nonzero;stroke:none"
         id="path56" />
      <path
         d="m 14566,5070.8 c -309.2,540 -967.2,1840 -966.4,3150.4 -3.5,373.3 58.3,744.3 182.4,1096.4 218.8,602.4 660,1160 1310,1661.2 210.6,-554.6 477.3,-1086.1 796,-1586.4 74.3,-110.8 199,-177.3 332.4,-177.2 37.7,0 75.3,5.3 111.6,15.6 388.2,121.8 767,271.9 1133.2,449.2 -302,-622.4 -455.2,-1240 -455.2,-1844.8 2.4,-385 61.7,-767.5 176,-1135.2 -842.4,-903.2 -2068.8,-1426.8 -2620,-1629.2"
         style="fill:#100f0d;fill-opacity:1;fill-rule:nonzero;stroke:none"
         id="path58" />
      <path
         d="m 20000,4112.8 c -475.2,400 -1538.8,1400 -1985.6,2630.8 -131.3,349 -200.3,718.3 -204,1091.2 0,707.6 271.2,1455.6 805.6,2223.2 187.4,266.8 392.6,520.7 614,760 170.3,150.5 330.7,311.9 480,483.2 108.8,100.8 207.2,186.4 288.4,254.8 80,-68.8 180.4,-154.8 290.4,-256.4 v 0 c 147.7,-169 306.3,-328.2 474.8,-476.4 183.3,-197.1 355.7,-404.1 516.4,-620 -233.2,-990.8 -209.6,-1884 72,-2656.8 133.6,-361 320,-700.2 553.2,-1006.4 C 21421.6,5403.2 20448.4,4491.6 20000,4112.8"
         style="fill:#100f0d;fill-opacity:1;fill-rule:nonzero;stroke:none"
         id="path60" />
      <path
         d="m 25433.6,5070.8 c -583.6,213.2 -1922.4,785.6 -2766,1793.2 -242.5,283.1 -433.5,606.6 -564.4,955.6 -219.6,602.8 -240,1313.6 -63.6,2115.2 517.4,-289.5 1063.1,-525.4 1628.4,-704 36.3,-10.3 73.9,-15.5 111.6,-15.6 133.5,0 258.2,66.6 332.4,177.6 219.5,342.3 413.3,700.5 579.6,1071.6 152.8,-604 412.8,-1200 840,-1705.2 248.3,-294.4 538.9,-550.2 862.4,-759.2 -66,-1231.6 -668.8,-2420.4 -960.4,-2929.2"
         style="fill:#100f0d;fill-opacity:1;fill-rule:nonzero;stroke:none"
         id="path62" />
      <path
         d="m 30212,7829.2 c -620,0 -2068.4,80 -3200,731.2 -9.6,5.6 -19.2,11.6 -29.2,16.4 -317.9,182.2 -602.1,417.7 -840,696.4 -762.8,909.2 -876,2232 -828.8,3218.4 31.4,212 49.7,425.7 54.8,640 19.2,155.2 40,291.2 58.8,400 107.2,0 240,-3.2 390,-10.4 223.4,-34.5 448.8,-54.5 674.8,-60 317.4,-39.5 631.8,-100.1 941.2,-181.2 13.1,-4 26.5,-7.4 40,-10 742,-203.2 1503.6,-560 2024.8,-1180.4 234.5,-284.9 417.8,-608.4 541.6,-956 l 3.6,-9.2 c 447.2,-1230 276.4,-2681.6 168.4,-3295.2"
         style="fill:#100f0d;fill-opacity:1;fill-rule:nonzero;stroke:none"
         id="path64" />
      <path
         d="m 30706,11619.6 c -149.1,355.3 -350.1,686.5 -596.4,982.8 -424.8,506.4 -965.2,866 -1533.6,1120 394.4,99.3 780.8,227.9 1156,384.8 159.6,70.3 255.2,235.9 236.4,409.2 -76.8,588.2 -213.6,1166.9 -408.4,1727.2 820,34.8 1516.4,-109.6 2072,-430.4 321.3,-189.6 606.8,-434.1 843.6,-722.4 v 0 0 c 840,-1002 1173.2,-2420.8 1282.8,-3032.4 -552.4,-201.2 -1827.2,-588 -3052.4,-438.8"
         style="fill:#100f0d;fill-opacity:1;fill-rule:nonzero;stroke:none"
         id="path66" />
      <path
         d="m 32925.2,15786.4 c -261.2,282.9 -562.9,525.5 -895.2,720 -712.4,411.6 -1587.2,590 -2604.4,532.4 -184.1,194.5 -357.6,398.7 -520,611.6 -116.8,191.2 -245.6,374.7 -385.6,549.6 -82,126.8 -150.4,240 -204.4,333.2 82.4,68.8 185.2,151.6 305.2,242.8 191.4,116.3 375.2,244.5 550.4,384 276,177.8 563.7,336.7 861.2,475.6 847.6,392.4 1630.8,529.2 2328,406.4 366.8,-68.3 718.8,-200.3 1040,-390 h 2.4 v 0 c 1133.2,-654.4 1930.4,-1874.4 2242.8,-2411.6 -449.6,-376 -1513.6,-1175.2 -2720.4,-1454"
         style="fill:#100f0d;fill-opacity:1;fill-rule:nonzero;stroke:none"
         id="path68" />
    </g>
    <path
       style="fill:#ffffff;stroke-width:8.85936;paint-order:stroke markers fill"
       d="M 932.07617,3219.8801 C 840.07137,3195.1153 713.82395,3130.426 624.7219,3062.3915 l -40.04295,-30.5751 49.53739,-69.618 c 51.65501,-72.594 126.39595,-154.073 182.87487,-199.3614 l 33.03804,-26.4919 65.38998,22.5696 c 119.78717,41.3449 246.25367,38.9084 379.13917,-7.3046 l 59.1933,-20.5854 38.7116,23.192 c 54.7367,32.7927 146.96,96.9445 152.6872,106.2113 7.3817,11.9437 -87.0396,140.0019 -153.0548,207.5795 -112.7506,115.4191 -216.9207,165.5895 -342.3618,164.8883 -38.9812,-0.218 -91.97215,-6.075 -117.75773,-13.0157 z"
       id="path744"
       transform="matrix(0.75000002,0,0,-0.75000002,0,4000.0001)" />
    <path
       style="fill:#ffffff;stroke-width:8.85936;paint-order:stroke markers fill"
       d="m 1700.9967,3423.4086 c -12.1816,-2.1466 -46.0686,-8.1087 -75.3045,-13.2491 -29.2359,-5.1403 -79.699,-17.1134 -112.1403,-26.6068 l -58.9842,-17.2606 12.1318,-52.0042 c 36.821,-157.8376 112.1546,-306.0971 193.9871,-381.7744 22.371,-20.6884 30.13,-22.1261 122.9027,-22.7739 108.227,-0.7558 172.5845,-14.3261 275.6951,-58.1326 l 61.4993,-26.1279 87.2499,22.4764 c 47.9875,12.3621 89.2643,22.4765 91.7262,22.4765 18.5307,0 -42.6667,191.3608 -91.7073,286.7632 -67.8008,131.8984 -152.7814,209.6672 -268.4477,245.6667 -51.7563,16.1083 -194.1918,28.3736 -238.6081,20.5467 z"
       id="path815"
       transform="matrix(0.75000002,0,0,-0.75000002,0,4000.0001)" />
    <path
       style="fill:#ffffff;stroke-width:8.85936;paint-order:stroke markers fill"
       d="m 996.67777,3764.9134 c -43.85382,-9.226 -95.68107,-22.4028 -115.17165,-29.2819 -33.75669,-11.9142 -35.33325,-14.1311 -33.24075,-46.7422 4.30008,-67.0155 60.11144,-212.3294 116.13792,-302.3839 l 23.41512,-37.6364 71.22839,-0.016 c 86.904,-0.019 157.5221,-17.5064 233.3961,-57.7957 31.594,-16.7765 58.9298,-29.0165 60.7462,-27.2001 1.8164,1.8164 -2.552,34.3084 -9.7075,72.2045 -8.4607,44.8082 -10.2278,76.2198 -5.0536,89.829 8.244,21.6832 59.8415,48.3927 129.4511,67.0104 l 37.1941,9.9479 -52.2342,31.5213 c -28.7288,17.3367 -73.0466,51.4548 -98.4839,75.8181 -47.2939,45.2967 -114.045,139.4384 -114.045,160.8419 0,17.98 -146.586,14.2996 -243.63233,-6.1169 z"
       id="path817"
       transform="matrix(0.75000002,0,0,-0.75000002,0,4000.0001)" />
    <path
       style="fill:#ffffff;stroke-width:8.85936;paint-order:stroke markers fill"
       d="m 1304.8593,4264.1637 c -3.8299,-13.7285 -6.6238,-88.7483 -6.2088,-166.7106 0.685,-128.6708 2.9446,-148.4179 24.4895,-214.019 66.6182,-202.8426 220.3201,-308.4006 495.0563,-339.9903 116.6706,-13.415 119.2521,-12.9975 125.0862,20.2329 2.7803,15.8361 7.6494,66.6667 10.8203,112.9569 l 5.7652,84.1639 -83.7454,84.1639 c -98.054,98.544 -140.6419,174.0104 -163.4061,289.5586 l -14.2385,72.2726 -81.2513,26.9424 c -76.4445,25.3486 -135.3371,36.8781 -254.7816,49.8794 -49.8055,5.4212 -50.7349,5.1073 -57.5858,-19.4507 z"
       id="path819"
       transform="matrix(0.75000002,0,0,-0.75000002,0,4000.0001)" />
    <path
       style="fill:#ffffff;stroke-width:8.85936;paint-order:stroke markers fill"
       d="m 2177.4669,3958.1447 c -61.5644,-94.5332 -113.2365,-275.8119 -113.2365,-397.262 0,-77.6238 -4.966,-69.2069 79.7342,-135.1409 62.1988,-48.418 115.0723,-114.7806 167.1512,-209.7949 l 41.2757,-75.3045 75.1885,-37.4402 c 41.3538,-20.5921 80.4249,-37.5356 86.8247,-37.6522 15.4815,-0.2822 84.3342,146.717 107.7907,230.1312 23.7195,84.3491 32.2405,202.7409 19.0266,264.3555 -31.438,146.59 -153.806,277.5615 -351.078,375.7617 -89.4853,44.545 -97.2211,46.0792 -112.6771,22.3463 z"
       id="path821"
       transform="matrix(0.75000002,0,0,-0.75000002,0,4000.0001)" />
    <path
       style="fill:#ffffff;stroke-width:8.85936;paint-order:stroke markers fill"
       d="m 1906.5828,4573.6435 c -91.8628,-194.8069 -111.5099,-371.5237 -55.6848,-500.857 20.6557,-47.8541 88.3033,-136.8332 127.1502,-167.2447 l 30.1249,-23.5835 51.3561,101.6711 c 30.5693,60.5191 60.4044,107.5999 73.7112,116.3189 21.3067,13.9606 26.0619,13.3435 101.3829,-13.1575 51.6521,-18.1733 77.4926,-23.8047 74.5962,-16.2567 -29.3293,76.4309 -41.2239,138.8042 -41.2239,216.172 0,47.0272 3.9553,99.2953 8.7896,116.1513 8.1969,28.5812 6.5774,32.9126 -24.0244,64.2517 -45.1216,46.2087 -138.749,107.6066 -227.5509,149.2205 -40.8828,19.1583 -76.0738,34.8333 -78.2023,34.8333 -2.1285,0 -20.3196,-34.8837 -40.4248,-77.5194 z"
       id="path823"
       transform="matrix(0.75000002,0,0,-0.75000002,0,4000.0001)" />
    <path
       style="fill:#ffffff;stroke-width:8.85936;paint-order:stroke markers fill"
       d="m 2589.7638,4701.7746 c -83.6692,-87.1519 -138.0907,-164.7864 -175.094,-249.7792 -25.0438,-57.5231 -27.0662,-69.8192 -26.9841,-164.0661 0.079,-90.6556 2.7055,-108.0098 23.8364,-157.4847 35.1554,-82.3112 98.0176,-171.6861 181.2835,-257.7413 l 73.9899,-76.4684 84.1091,87.2092 c 46.26,47.9651 82.5123,89.8256 80.5606,93.0233 -1.9517,3.1977 -7.9298,41.969 -13.2846,86.1584 -16.2185,133.8381 8.1656,259.1169 69.9914,359.5965 l 27.7023,45.022 -42.6547,70.9356 c -38.2088,63.542 -189.1268,237.014 -206.1986,237.014 -3.7244,0 -38.4901,-33.0387 -77.2572,-73.4193 z"
       id="path825"
       transform="matrix(0.75000002,0,0,-0.75000002,0,4000.0001)" />
    <path
       style="fill:#ffffff;stroke-width:8.85936;paint-order:stroke markers fill"
       d="m 3306.6491,4615.9724 c -102.7246,-48.7028 -185.5346,-106.5386 -253.8258,-177.276 -69.6212,-72.115 -107.3271,-146.1781 -119.6046,-234.931 -7.805,-56.4221 -1.9651,-165.6574 9.4676,-177.0901 2.5693,-2.5693 34.207,8.8814 70.306,25.4459 36.099,16.5646 88.2804,37.1712 115.9587,45.7925 46.1214,14.366 52.1085,14.5059 71.692,1.6743 11.7523,-7.7005 37.8196,-45.218 57.9272,-83.3724 22.4183,-42.5389 36.666,-62.0097 36.8352,-50.3386 0.4425,30.5422 76.4895,172.6544 113.0761,211.3103 18.4473,19.4906 50.147,49.3909 70.4438,66.4452 l 36.9032,31.0077 -8.4427,53.1562 c -4.6435,29.2358 -16.6619,79.0697 -26.7075,110.7419 -20.0425,63.1908 -87.4137,212.7692 -95.6579,212.3808 -2.8464,-0.1341 -38.1135,-15.8601 -78.3713,-34.9467 z"
       id="path827"
       transform="matrix(0.75000002,0,0,-0.75000002,0,4000.0001)" />
    <path
       style="fill:#ffffff;stroke-width:8.85936;paint-order:stroke markers fill"
       d="m 3058.7136,3942.9694 c -136.2626,-65.895 -244.5143,-149.888 -303.2951,-235.3281 -23.8676,-34.6925 -24.1019,-36.2755 -11.1464,-75.3045 20.2686,-61.0605 19.7464,-253.3244 -0.9071,-333.8972 l -16.325,-63.6868 40.1263,-84.7075 c 22.0695,-46.5891 45.1787,-84.7074 51.3539,-84.7074 26.0211,0 179.7988,83.4615 246.8005,133.9488 83.6685,63.0461 133.1134,121.3526 171.8988,202.7068 26.4695,55.521 27.4339,61.7154 26.8961,172.7574 -0.5105,105.4276 -2.9624,122.2924 -28.9803,199.3356 -30.9855,91.7535 -80.2618,196.2514 -94.7703,200.9753 -5.0252,1.6362 -41.7684,-12.8054 -81.6514,-32.0924 z"
       id="path829"
       transform="matrix(0.75000002,0,0,-0.75000002,0,4000.0001)" />
    <path
       style="fill:#ffffff;stroke-width:8.85936;paint-order:stroke markers fill"
       d="m 3912.6084,4278.221 c -145.8979,-15.3942 -281.5156,-63.8305 -366.2457,-130.8057 -123.4345,-97.5694 -185.5858,-293.2284 -163.4207,-514.4656 5.0195,-50.1017 11.4233,-93.3908 14.2305,-96.198 7.7731,-7.7731 197.1039,14.1671 257.3127,29.8181 87.9092,22.8516 193.7265,78.7831 246.467,130.2743 51.9541,50.7235 101.5082,142.9778 122.3894,227.8515 13.0648,53.1029 16.8711,297.4037 5.2797,338.8704 -7.542,26.9807 -3.7435,26.5009 -116.0129,14.655 z"
       id="path831"
       transform="matrix(0.75000002,0,0,-0.75000002,0,4000.0001)" />
    <path
       style="fill:#ffffff;stroke-width:8.85936;paint-order:stroke markers fill"
       d="m 4075.4915,3736.09 c -27.0862,-56.9403 -138.2812,-171.0302 -200.3911,-205.6082 l -45.1655,-25.1447 70.8752,-24.5418 c 38.9814,-13.498 77.1159,-30.7825 84.7434,-38.41 18.9125,-18.9124 15.5274,-69.618 -11.8504,-177.5087 -12.3362,-48.6147 -22.4294,-90.0694 -22.4294,-92.1216 0,-2.0521 30.897,-1.2884 68.66,1.697 177.9982,14.072 299.2393,102.77 389.7397,285.1273 34.1682,68.8486 72.5986,185.7329 75.3947,229.31 2.0913,32.5925 0.5032,34.8319 -33.1043,46.6827 -68.1395,24.0276 -207.4123,47.3705 -280.5979,47.0297 l -73.9128,-0.3442 z"
       id="path833"
       transform="matrix(0.75000002,0,0,-0.75000002,0,4000.0001)" />
    <path
       style="fill:#ffffff;stroke-width:8.85936;paint-order:stroke markers fill"
       d="m 3477.298,3422.2911 c -19.4906,-1.8161 -53.3776,-9.1967 -75.3045,-16.4013 -36.6464,-12.0412 -42.1447,-17.9167 -68.059,-72.7283 -40.6937,-86.0712 -106.7151,-159.4905 -226.1271,-251.4653 -24.6404,-18.9787 -34.1222,-36.0501 -49.2071,-88.5936 -10.277,-35.7966 -21.1079,-77.3698 -24.0687,-92.3848 l -5.3832,-27.2999 69.036,-18.6309 c 143.9874,-38.8583 276.8288,-48.6061 376.4627,-27.6247 165.9501,34.9466 291.8522,170.8196 364.3587,393.2143 12.7089,38.9812 26.7915,87.791 31.2946,108.4663 l 8.1876,37.5914 -58.3352,18.0179 c -113.4163,35.0307 -232.244,48.145 -342.8548,37.8389 z"
       id="path835"
       transform="matrix(0.75000002,0,0,-0.75000002,0,4000.0001)" />
    <path
       style="fill:#ffffff;stroke-width:8.85936;paint-order:stroke markers fill"
       d="m 4349.6903,3183.1062 c -94.1898,-78.2176 -194.3934,-115.5622 -331.9715,-123.7213 -62.9289,-3.7321 -93.3914,-9.4054 -105.1557,-19.5841 -9.1091,-7.8816 -42.1104,-49.9888 -73.336,-93.5718 -66.112,-92.2753 -70.046,-79.4526 48.6248,-158.4896 144.9384,-96.5315 297.2513,-141.8313 412.2528,-122.6091 137.0537,22.9082 277.1713,126.1594 393.8985,290.2599 l 54.9404,77.2376 -64.3797,46.8934 c -70.7208,51.5124 -163.3841,100.6576 -238.5522,126.5192 l -48.5779,16.7133 z"
       id="path837"
       transform="matrix(0.75000002,0,0,-0.75000002,0,4000.0001)" />
    <path
       style="fill:#ffffff;stroke-width:8.85936;paint-order:stroke markers fill"
       d="M 1009.9668,2666.4152 C 892.16774,2641.928 746.41277,2528.4848 639.33024,2377.9433 l -54.9403,-77.2376 64.37957,-46.8934 c 176.74584,-128.74 362.77939,-180.3272 508.27199,-140.9442 52.4806,14.2059 178.2795,85.3774 192.9956,109.1885 3.046,4.9286 -25.3798,30.9191 -63.1686,57.7568 -92.6064,65.7694 -126.2926,99.4431 -126.2926,126.2459 0,27.7376 31.2539,89.0463 83.1109,163.0333 22.1521,31.6055 37.4314,60.1472 33.9538,63.426 -28.5819,26.9484 -197.9324,48.3939 -267.6738,33.8966 z"
       id="path839"
       transform="matrix(0.75000002,0,0,-0.75000002,0,4000.0001)" />
    <path
       style="fill:#ffffff;stroke-width:8.85936;paint-order:stroke markers fill"
       d="M 1705.4264,2786.9406 C 1573.418,2753.833 1449.7288,2656.0544 1337.25,2495.8904 c -24.0811,-34.2902 -43.7837,-65.6034 -43.7837,-69.585 0,-12.1249 124.2497,-95.7973 196.5448,-132.3573 182.1533,-92.1159 336.782,-94.0714 484.0991,-6.1222 64.332,38.4065 171.7579,146.4386 231.2539,232.5586 l 48.1103,69.6394 -31.6505,27.2472 c -44.716,38.495 -163.5622,108.7248 -228.1085,134.7962 -109.2436,44.1254 -205.1436,55.7261 -288.289,34.8733 z"
       id="path841"
       transform="matrix(0.75000002,0,0,-0.75000002,0,4000.0001)" />
    <path
       style="fill:#ffffff;stroke-width:8.85936;paint-order:stroke markers fill"
       d="m 1399.7786,2112.8999 c -104.7075,-85.7063 -218.1232,-128.4037 -341.0748,-128.4037 h -71.57132 l -28.0495,-46.5116 c -40.504,-67.1637 -70.30293,-135.7692 -95.4189,-219.6812 -26.14937,-87.3645 -27.02888,-102.6577 -6.5212,-113.3922 68.70667,-35.9637 383.16722,-73.5712 383.16722,-45.8244 0,19.5656 59.5081,109.5815 99.0628,149.8489 51.1398,52.0613 139.2305,108.2557 217.1981,138.5539 l 63.7692,24.7806 27.9347,87.0004 c 15.3641,47.8503 28.5284,99.7791 29.2541,115.3974 1.3074,28.1396 0.677,28.5807 -69.5555,48.6716 -38.9812,11.151 -90.8084,22.3378 -115.1717,24.8596 -42.1929,4.3671 -46.611,2.6906 -93.0232,-35.2993 z"
       id="path843"
       transform="matrix(0.75000002,0,0,-0.75000002,0,4000.0001)" />
    <path
       style="fill:#ffffff;stroke-width:8.85936;paint-order:stroke markers fill"
       d="m 1602.7113,1740.5248 c -183.1699,-63.6562 -290.1435,-217.8464 -305.8155,-440.7977 -5.9771,-85.0318 1.6674,-225.041 13.3164,-243.8895 13.9813,-22.6222 226.773,11.1899 338.7929,53.8334 l 49.8911,18.9924 14.0294,71.2114 c 16.6892,84.7123 62.1549,180.9252 112.5529,238.1803 l 36.4925,41.4577 h -78.5159 c -55.644,0 -84.073,3.8924 -97.5929,13.3621 -22.1122,15.4879 -36.6065,74.6299 -45.4628,185.5038 l -5.8479,73.2114 z"
       id="path845"
       transform="matrix(0.75000002,0,0,-0.75000002,0,4000.0001)" />
    <path
       style="fill:#ffffff;stroke-width:8.85936;paint-order:stroke markers fill"
       d="m 2268.7278,2337.8135 c -63.3714,-7.3461 -67.3174,-9.2217 -110.7419,-52.6359 -78.7626,-78.744 -207.4648,-151.7424 -302.7074,-171.6922 -31.1501,-6.5248 -48.2002,-35.3466 -76.3059,-128.9892 -20.2175,-67.3604 -30.1446,-222.3118 -20.6999,-323.1011 l 6.4665,-69.0072 76.6559,6.0012 c 146.397,11.4611 301.443,60.4962 388.9483,123.0095 35.5786,25.4172 37.6522,29.307 37.6522,70.6296 0,86.0065 44.7509,211.2094 109.4853,306.3151 29.2563,42.9824 32.2645,52.9855 32.2645,107.2906 0,32.9388 -2.5353,78.3853 -5.6339,100.9923 -5.5593,40.5594 -6.0579,41.0884 -37.6523,39.9543 -17.6101,-0.6321 -61.5892,-4.5773 -97.7314,-8.767 z"
       id="path847"
       transform="matrix(0.75000002,0,0,-0.75000002,0,4000.0001)" />
    <path
       style="fill:#ffffff;stroke-width:8.85936;paint-order:stroke markers fill"
       d="m 2174.9724,1554.4147 c -308.1155,-150.9066 -409.9544,-350.667 -326.7797,-640.98926 19.6516,-68.59429 89.1563,-231.25488 98.8149,-231.25488 2.1285,0 37.5901,15.80182 78.8037,35.11515 105.2414,49.31778 183.7166,103.82212 253.3796,175.98276 124.0519,128.49963 152.7558,265.73203 98.9846,473.24183 -14.9184,57.572 -79.0301,209.1199 -95.2951,225.2597 -7.9999,7.9381 -33.3403,-0.8341 -107.908,-37.3553 z"
       id="path849"
       transform="matrix(0.75000002,0,0,-0.75000002,0,4000.0001)" />
    <path
       style="fill:#ffffff;stroke-width:8.85936;paint-order:stroke markers fill"
       d="m 2598.3361,2181.6169 c -283.93,-288.0133 -286.5788,-551.7028 -8.4374,-839.9443 34.9882,-36.2588 69.5338,-65.9251 76.768,-65.9251 7.2343,0 41.7799,29.6663 76.7681,65.9251 242.0582,250.8481 270.5513,481.7439 89.712,726.9875 -45.1509,61.231 -152.6249,172.7575 -166.4801,172.7575 -5.1578,0 -35.9066,-26.9103 -68.3306,-59.8007 z"
       id="path851"
       transform="matrix(0.75000002,0,0,-0.75000002,0,4000.0001)" />
    <path
       style="fill:#ffffff;stroke-width:8.85936;paint-order:stroke markers fill"
       d="m 2560.6602,2930.6546 c -66.2568,-25.4356 -133.2887,-93.35 -158.4117,-160.4973 -86.8631,-232.1625 135.7463,-454.7719 367.9088,-367.9088 68.8146,25.7468 135.1809,92.1131 160.9277,160.9277 87.0963,232.7857 -138.4457,456.5336 -370.4248,367.4784 z"
       id="path853"
       transform="matrix(0.75000002,0,0,-0.75000002,0,4000.0001)" />
    <path
       style="fill:#ffffff;stroke-width:8.85936;paint-order:stroke markers fill"
       d="m 2929.3476,2307.5425 c -3.1677,-23.1109 -5.7595,-67.6352 -5.7595,-98.9427 0,-52.7788 3.2432,-62.2302 44.5477,-129.8226 56.1569,-91.8974 89.6772,-186.5964 95.2044,-268.9641 l 4.2907,-63.9411 45.3651,-30.9274 c 90.7297,-61.8545 233.4311,-105.6643 381.1699,-117.0204 l 73.4028,-5.6422 5.7289,47.7129 c 10.1132,84.2255 6.2853,228.0891 -7.9386,298.3631 -50.5196,249.5942 -223.6364,374.1669 -562.9217,405.0714 l -67.3302,6.133 z"
       id="path855"
       transform="matrix(0.75000002,0,0,-0.75000002,0,4000.0001)" />
    <path
       style="fill:#ffffff;stroke-width:8.85936;paint-order:stroke markers fill"
       d="m 2518.7149,1144.4629 c -10.8439,-96.8091 -33.1255,-167.64796 -73.2356,-232.83524 l -27.3845,-44.50551 22.6129,-41.53448 c 33.9563,-62.36933 102.4579,-149.78609 167.7232,-214.03604 l 58.2358,-57.32989 58.2359,57.32989 c 65.2653,64.24995 133.7669,151.66671 167.7231,214.03604 l 22.613,41.53448 -27.3845,44.50551 c -39.6403,64.42366 -62.0492,135.26594 -73.6602,232.86484 l -10.2072,85.7992 -53.1562,-44.0055 c -29.2358,-24.2029 -62.003,-46.2703 -72.8159,-49.0386 -20.0891,-5.1431 -69.8136,19.8497 -91.5142,45.9973 -6.2058,7.4775 -21.8347,21.1088 -34.7308,30.2916 l -23.4475,16.6961 z"
       id="path857"
       transform="matrix(0.75000002,0,0,-0.75000002,0,4000.0001)" />
    <path
       style="fill:#ffffff;stroke-width:8.85936;paint-order:stroke markers fill"
       d="m 3048.838,1591.6906 c -19.2449,-23.2627 -81.6971,-178.7361 -97.5221,-242.7789 -35.1708,-142.3348 -30.5208,-235.5259 16.8388,-337.4661 31.7263,-68.29028 118.098,-160.62081 204.4537,-218.5592 57.5407,-38.60559 209.923,-115.76847 215.7727,-109.26232 1.4717,1.63689 16.5376,30.88314 33.4796,64.99167 40.7273,81.99422 67.9535,162.34523 82.5526,243.63234 l 11.9335,66.44521 -37.2431,30.8147 c -69.7278,57.6924 -104.6973,101.9824 -143.549,181.8099 -30.2325,62.1177 -66.4516,182.1741 -66.4516,220.2686 0,6.6016 -71.2331,45.8363 -143.5263,79.0532 -50.313,23.1176 -70.4575,28.6436 -76.7388,21.0509 z"
       id="path859"
       transform="matrix(0.75000002,0,0,-0.75000002,0,4000.0001)" />
    <path
       style="fill:#ffffff;stroke-width:8.85936;paint-order:stroke markers fill"
       d="m 3691.4025,1675.2178 c -7.8296,-110.3042 -21.4184,-166.5743 -44.0554,-182.4299 -20.731,-14.5206 -132.5387,-17.3303 -216.0074,-5.4283 l -45.9583,6.5533 4.9039,-27.1336 c 10.6268,-58.7989 48.1747,-152.5054 79.1016,-197.4099 82.5345,-119.8364 237.3005,-192.3512 459.1519,-215.1333 67.1335,-6.894 89.5667,-6.5142 94.5825,1.6015 11.319,18.3145 19.387,158.1162 13.69,237.2207 -16.5325,229.562 -113.0993,373.8725 -296.9182,443.7182 l -42.9623,16.3244 z"
       id="path861"
       transform="matrix(0.75000002,0,0,-0.75000002,0,4000.0001)" />
    <path
       style="fill:#ffffff;stroke-width:8.85936;paint-order:stroke markers fill"
       d="m 3754.2408,2131.1189 c -42.5873,-11.3457 -83.9372,-23.125 -91.8886,-26.1763 -17.7911,-6.827 -14.2394,-28.9007 23.9446,-148.8156 26.3972,-82.8991 28.5231,-86.3267 59.7948,-96.408 17.8335,-5.7491 62.3212,-24.8766 98.8616,-42.5056 82.3649,-39.7372 197.161,-149.2186 230.6484,-219.9699 l 21.8515,-46.1675 72.7755,-0.3442 c 73.9502,-0.3497 217.2314,23.3944 281.5988,46.6656 33.6591,12.1691 35.3284,14.5195 33.265,46.837 -4.3888,68.7406 -58.7145,210.2548 -116.1622,302.5937 l -23.4151,37.6364 -71.2284,0.016 c -121.8934,0.028 -220.3784,36.3046 -335.8685,123.7187 -67.825,51.3366 -74.428,52.1583 -184.1774,22.9199 z"
       id="path863"
       transform="matrix(0.75000002,0,0,-0.75000002,0,4000.0001)" />
    <path
       style="fill:#ffffff;stroke-width:8.85936;paint-order:stroke markers fill"
       d="m 3620.6764,2754.3564 c -64.6874,-34.1329 -160.5852,-52.2522 -276.5492,-52.2522 h -108.1881 l -65.3671,-42.7688 c -98.2656,-64.2939 -96.9817,-60.2435 -43.5807,-137.4907 25.0245,-36.1992 52.2868,-71.4482 60.5829,-78.3311 8.296,-6.8828 44.984,-21.7206 81.5289,-32.9728 95.9079,-29.5301 182.0006,-77.3513 244.4837,-135.8012 49.3033,-46.1209 58.3139,-51.0408 93.4789,-51.0408 55.505,0 157.0484,30.1933 236.2567,70.2493 72.295,36.56 196.5448,120.2324 196.5448,132.3573 0,13.5904 -87.4634,131.8185 -137.4974,185.8611 -73.4043,79.2854 -195.1349,161.8478 -236.5259,160.421 -6.2473,-0.2154 -26.5727,-8.4193 -45.1675,-18.2311 z"
       id="path865"
       transform="matrix(0.75000002,0,0,-0.75000002,0,4000.0001)" />
    <path
       style="fill:#00ffff;stroke-width:8.85936;paint-order:stroke markers fill"
       d="m 4410.1309,2572.6916 c -72.6604,-26.1184 -169.5598,-34.8928 -245.7136,-22.2498 -31.3867,5.2109 -58.7319,7.8091 -60.7671,5.7739 -2.0352,-2.0353 4.1873,-14.8934 13.8279,-28.5738 30.0953,-42.7064 55.2795,-98.5024 55.2795,-122.4727 0,-27.4792 -30.1432,-57.4155 -126.5448,-125.676 -78.8809,-55.8545 -79.0726,-52.9089 7.097,-109.0505 177.8172,-115.8525 397.8592,-86.9092 630.7886,82.9709 l 63.9431,46.6351 -40.8399,61.4928 c -44.365,66.8005 -207.0167,234.7909 -225.9621,233.3789 -6.4314,-0.4794 -38.4302,-10.4823 -71.1086,-22.2288 z"
       id="path867"
       transform="matrix(0.75000002,0,0,-0.75000002,0,4000.0001)" />
    <path
       style="fill:#00ffff;stroke-width:8.85936;paint-order:stroke markers fill"
       d="m 4354.3744,3179.8957 c -91.7827,-74.0227 -183.6125,-108.6545 -327.3091,-123.4383 -48.4586,-4.9855 -96.2991,-14.4545 -106.3123,-21.0422 -24.6719,-16.2317 -120.0884,-150.0261 -120.0884,-168.3897 0,-16.2427 111.7811,-92.3501 202.4936,-137.87 70.7409,-35.4981 174.8177,-62.4888 240.9582,-62.4888 105.3272,0 223.09,56.3488 329.115,157.4795 63.1307,60.2165 172.6408,204.9818 161.3535,213.2989 -64.4116,47.4614 -189.3591,121.982 -238.1562,142.04 -97.3273,40.0063 -92.9741,39.9938 -142.0543,0.4106 z"
       id="path1250"
       transform="matrix(0.75000002,0,0,-0.75000002,0,4000.0001)" />
    <path
       style="fill:#00ffff;stroke-width:8.85936;paint-order:stroke markers fill"
       d="m 4080.2991,3736.4939 c -20.4985,-44.3759 -139.3068,-170.4608 -189.9748,-201.6101 -19.8148,-12.1816 -36.1342,-24.818 -36.2653,-28.0809 -0.1311,-3.2629 20.6919,-12.7731 46.2733,-21.1338 73.776,-24.112 93.2563,-36.7654 99.3559,-64.5367 4.6628,-21.2299 -5.849,-86.0152 -36.9696,-227.8461 -3.8664,-17.6211 -1.6797,-18.0057 65.3671,-11.4956 111.1506,10.7924 185.6437,43.7673 258.6633,114.4992 47.4377,45.9515 106.5476,135.9963 137.3419,209.2194 30.1698,71.738 61.4702,186.6793 55.2501,202.8887 -2.7012,7.0391 -15.9768,17.074 -29.5014,22.2998 -51.5523,19.9196 -201.1275,43.3794 -275.1813,43.1601 l -77.2052,-0.2285 z"
       id="path1252"
       transform="matrix(0.75000002,0,0,-0.75000002,0,4000.0001)" />
    <path
       style="fill:#00ffff;stroke-width:8.85936;paint-order:stroke markers fill"
       d="m 3434.6869,3410.5886 c -54.9003,-13.8881 -64.5124,-22.6389 -104.1032,-94.7753 -36.1084,-65.7915 -99.6788,-136.7011 -213.1346,-237.7413 -35.6389,-31.7389 -42.6766,-44.3739 -59.5522,-106.9156 -10.5254,-39.0078 -19.1371,-76.9589 -19.1371,-84.3358 0,-9.6986 23.9176,-18.9251 86.3787,-33.3216 344.2643,-79.3484 530.3308,-8.2113 658.3629,251.706 39.0807,79.3374 95.6741,247.8087 86.3701,257.1127 -1.9945,1.9946 -41.3056,14.0016 -87.358,26.6822 -92.8556,25.5681 -284.9615,37.4916 -347.8266,21.5887 z"
       id="path1254"
       transform="matrix(0.75000002,0,0,-0.75000002,0,4000.0001)" />
    <path
       style="fill:#00ffff;stroke-width:8.85936;paint-order:stroke markers fill"
       d="m 3875.9691,4269.322 c -63.075,-9.0031 -189.3965,-46.9983 -239.2027,-71.9479 -157.7385,-79.0165 -240.3782,-225.1452 -249.401,-441.0063 -2.3422,-56.0355 -0.9223,-125.8029 3.1553,-155.0388 l 7.4139,-53.1561 79.5488,1.601 c 43.7519,0.8805 109.1034,7.7785 145.2257,15.3288 93.0489,19.4492 219.6661,83.2104 274.8766,138.4209 57.9027,57.9027 111.8922,167.6366 124.1244,252.2836 9.9767,69.0387 12.3148,252.8065 3.7607,295.5772 -5.3749,26.8744 -6.8673,27.6538 -50.9413,26.6052 -24.9724,-0.5942 -69.3245,-4.4946 -98.5604,-8.6676 z"
       id="path1256"
       transform="matrix(0.75000002,0,0,-0.75000002,0,4000.0001)" />
    <path
       style="fill:#00ffff;stroke-width:8.85936;paint-order:stroke markers fill"
       d="m 3282.1656,4595.4772 c -249.3977,-129.716 -364.4973,-295.1995 -346.0326,-497.5053 3.087,-33.8232 6.7973,-62.6813 8.245,-64.129 1.4478,-1.4477 47.1507,15.2624 101.5622,37.1335 54.4114,21.8711 110.2405,39.7657 124.0647,39.7657 29.6222,0 50.2473,-20.2604 92.4268,-90.7926 l 30.4543,-50.9254 10.0384,33.2067 c 19.5622,64.7116 87.6736,166.6332 148.7666,222.6139 l 59.6052,54.6173 -10.6288,57.6844 c -17.2683,93.7187 -98.2173,296.1708 -120.8223,302.1746 -4.8727,1.2942 -48.8285,-18.4355 -97.6795,-43.8438 z"
       id="path1258"
       transform="matrix(0.75000002,0,0,-0.75000002,0,4000.0001)" />
    <path
       style="fill:#00ffff;stroke-width:8.85936;paint-order:stroke markers fill"
       d="m 3033.0532,3921.3153 c -99.8902,-52.57 -175.1695,-107.1152 -230.1264,-166.7432 -64.5023,-69.9847 -65.7192,-73.4673 -50.4478,-144.3837 15.7396,-73.0904 11.085,-256.8141 -8.3046,-327.7963 l -12.1002,-44.2968 38.4542,-77.906 c 21.1499,-42.8484 44.2294,-80.1222 51.2879,-82.8308 17.9346,-6.8822 173.1996,77.3417 249.3021,135.2343 74.4873,56.664 124.2229,118.0133 163.2034,201.3126 l 28.19,60.2407 -4.6116,116.7476 c -3.738,94.6342 -8.9284,129.0352 -27.4025,181.6196 -31.9235,90.8665 -84.0419,196.5154 -96.8328,196.2889 -5.9077,-0.1046 -51.1829,-21.4737 -100.6117,-47.4869 z"
       id="path1260"
       transform="matrix(0.75000002,0,0,-0.75000002,0,4000.0001)" />
    <path
       style="fill:#00ffff;stroke-width:8.85936;paint-order:stroke markers fill"
       d="m 2152.424,3895.9027 c -47.2368,-98.5847 -79.4972,-229.1221 -80.3649,-325.1863 l -0.6838,-75.6997 47.3689,-39.8671 c 95.649,-80.5012 139.9096,-135.7368 214.8474,-268.1216 20.5058,-36.2256 34.0101,-47.2951 95.2774,-78.0998 39.2619,-19.7404 77.171,-33.6715 84.2424,-30.958 17.0822,6.5551 86.9424,155.1458 106.7418,227.0368 11.1692,40.5552 15.7419,89.2336 15.7684,167.8613 0.037,108.8504 -0.4918,111.8013 -30.9454,172.7575 -33.8793,67.8133 -123.9059,166.2412 -198.1107,216.5986 -52.4788,35.6136 -190.4846,106.768 -207.0792,106.768 -6.6228,0 -27.8008,-32.8904 -47.0623,-73.0897 z"
       id="path1262"
       transform="matrix(0.75000002,0,0,-0.75000002,0,4000.0001)" />
    <path
       style="fill:#00ffff;stroke-width:8.85936;paint-order:stroke markers fill"
       d="m 2591.6745,4694.0783 c -78.7022,-83.6609 -127.7077,-152.9078 -167.1907,-236.2475 -26.8416,-56.6565 -28.0275,-63.8734 -28.0275,-170.5695 v -111.4099 l 37.1561,-74.6366 c 38.5198,-77.376 121.3016,-187.1706 193.2071,-256.2534 l 41.4961,-39.8672 79.5586,84.1639 c 72.3155,76.5017 79.0629,86.5836 74.114,110.742 -2.9944,14.618 -7.6771,64.4518 -10.4058,110.742 -6.344,107.6189 10.7473,190.8266 59.3497,288.9387 l 36.2269,73.1301 -32.739,51.5238 c -49.6729,78.1738 -190.9866,241.9999 -208.7451,241.9999 -3.3147,0 -36.6149,-32.5154 -74.0004,-72.2563 z"
       id="path1264"
       transform="matrix(0.75000002,0,0,-0.75000002,0,4000.0001)" />
    <path
       style="fill:#00ffff;stroke-width:8.85936;paint-order:stroke markers fill"
       d="m 1942.0562,4631.2294 c -17.075,-20.6158 -71.3467,-152.4412 -90.2718,-219.2691 -26.0626,-92.0318 -32.5842,-211.5591 -15.1437,-277.5518 17.3944,-65.8178 59.785,-136.1947 119.8232,-198.9303 l 47.2722,-49.3961 48.2194,92.0953 c 73.9322,141.2047 86.9994,149.6126 178.4829,114.8415 72.3489,-27.4984 73.2035,-26.8278 53.6328,42.0864 -13.7888,48.5544 -16.4969,82.6171 -14.3997,181.1244 l 2.5828,121.3236 -26.4925,27.7768 c -35.251,36.9597 -124.9486,95.7049 -214.5573,140.519 -83.2352,41.6267 -77.1316,39.889 -89.1483,25.3803 z"
       id="path1266"
       transform="matrix(0.75000002,0,0,-0.75000002,0,4000.0001)" />
    <path
       style="fill:#00ffff;stroke-width:8.85936;paint-order:stroke markers fill"
       d="m 1306.2162,4238.6958 c -3.33,-22.2057 -4.0655,-98.9499 -1.6346,-170.5426 4.7226,-139.0822 15.7193,-185.7217 65.2439,-276.7148 73.8158,-135.6239 258.876,-230.1671 479.3365,-244.8828 65.5884,-4.3779 82.6352,-3.0079 86.3554,6.9406 2.5494,6.8175 8.1214,54.1898 12.3821,105.2719 l 7.7469,92.8764 -71.0318,75.4514 c -111.7933,118.7488 -162.1869,209.6599 -179.8795,324.5065 -3.0867,20.0368 -8.1807,40.5038 -11.3198,45.4822 -15.1241,23.9854 -261.1944,81.8545 -348.4649,81.9497 -32.0075,0.034 -32.8043,-0.7949 -38.7342,-40.3385 z"
       id="path1268"
       transform="matrix(0.75000002,0,0,-0.75000002,0,4000.0001)" />
    <path
       style="fill:#00ffff;stroke-width:8.85936;paint-order:stroke markers fill"
       d="m 1036.5449,3767.8026 c -55.22092,-9.6512 -165.02029,-40.4518 -175.64939,-49.2728 -23.14317,-19.2062 18.94667,-160.0398 85.33372,-285.5286 l 42.18162,-79.7342 97.15675,-5.4284 c 99.3459,-5.5507 133.733,-14.5152 216.4325,-56.4222 l 47.1385,-23.8869 -5.2629,34.0094 c -17.972,116.1371 -17.7731,121.4873 5.3185,143.091 12.0445,11.2685 48.2999,29.3798 80.5674,40.2474 l 58.6683,19.7592 -65.8689,45.7924 c -68.3701,47.5312 -143.0186,128.6844 -173.7127,188.8496 l -17.7577,34.808 -86.1986,-1.2065 c -47.4093,-0.6636 -96.1655,-2.9484 -108.3471,-5.0774 z"
       id="path1270"
       transform="matrix(0.75000002,0,0,-0.75000002,0,4000.0001)" />
    <path
       style="fill:#00ffff;stroke-width:8.85936;paint-order:stroke markers fill"
       d="m 1628.9527,3406.3424 c -32.3152,-6.4376 -83.3355,-18.6017 -113.3783,-27.0313 -54.2779,-15.2296 -54.5863,-15.5005 -48.7508,-42.8337 29.1613,-136.5904 106.2657,-300.2143 175.4314,-372.2843 l 45.4527,-47.3613 110.742,-5.0538 c 116.6009,-5.3211 160.881,-14.6584 260.1663,-54.8609 l 60.8309,-24.6316 87.5634,20.671 c 103.5222,24.4382 101.374,19.3182 60.0884,143.2173 -64.688,194.1304 -159.7247,325.1566 -274.8635,378.952 -92.0424,43.0042 -240.2037,55.7356 -363.2825,31.2166 z"
       id="path1272"
       transform="matrix(0.75000002,0,0,-0.75000002,0,4000.0001)" />
    <path
       style="fill:#00ffff;stroke-width:8.85936;paint-order:stroke markers fill"
       d="m 912.51387,3208.6545 c -89.96741,-29.7717 -204.92801,-92.5381 -314.03213,-171.456 -12.27323,-8.8776 108.9093,-163.8415 182.16814,-232.9502 47.59164,-44.8955 67.7243,-58.4414 81.97112,-55.1527 10.38681,2.3977 52.7257,13.2631 94.08641,24.1453 99.10129,26.0742 218.06919,21.2769 325.75649,-13.1359 l 73.1616,-23.3797 83.3809,54.0146 c 45.8596,29.708 87.6736,59.1868 92.9201,65.5085 14.2356,17.1528 -65.4321,126.7261 -159.7323,219.6926 -60.1199,59.2696 -94.0632,84.7691 -147.1009,110.5077 -65.2939,31.6864 -74.1107,33.5883 -166.4,35.8947 -75.49044,1.8865 -108.43422,-1.1985 -146.17943,-13.6889 z"
       id="path1274"
       transform="matrix(0.75000002,0,0,-0.75000002,0,4000.0001)" />
    <path
       style="fill:#00ffff;stroke-width:8.85936;paint-order:stroke markers fill"
       d="m 1678.3026,2772.6725 c -109.3684,-34.6832 -237.1673,-140.5716 -330.1025,-273.5081 -25.231,-36.0909 -45.8745,-68.8598 -45.8745,-72.8197 0,-17.9818 180.6614,-127.3226 265.7808,-160.8573 126.8682,-49.9825 245.6783,-47.4775 362.7376,7.648 54.0849,25.4697 82.0381,47.3249 155.3828,121.4856 49.1886,49.7359 104.8126,113.2376 123.609,141.1149 40.141,59.5338 40.5125,58.6167 -47.1492,116.3685 -188.1956,123.9838 -348.102,163.7862 -484.384,120.5681 z"
       id="path1276"
       transform="matrix(0.75000002,0,0,-0.75000002,0,4000.0001)" />
    <path
       style="fill:#00ffff;stroke-width:8.85936;paint-order:stroke markers fill"
       d="M 962.42499,2644.8784 C 852.21987,2599.5681 753.55561,2516.833 654.29367,2386.4942 c -36.13094,-47.4427 -60.40498,-86.9299 -55.5242,-90.3224 221.78861,-154.1614 319.30465,-192.4388 473.21283,-185.7473 76.2559,3.3155 90.4071,6.8324 150.6091,37.4303 76.2668,38.7629 115.1717,64.5899 115.1717,76.4566 0,4.5459 -24.724,27.198 -54.9422,50.338 -105.3321,80.6595 -122.245,98.9208 -122.245,131.9917 0,33.689 25.3942,87.2708 79.0735,166.8455 l 35.7521,52.9992 -20.6626,10.8262 c -27.899,14.6178 -122.1134,29.253 -187.1863,29.0775 -35.6397,-0.096 -70.28216,-7.1846 -105.12761,-21.5111 z"
       id="path1278"
       transform="matrix(0.75000002,0,0,-0.75000002,0,4000.0001)" />
    <path
       style="fill:#00ffff;stroke-width:8.85936;paint-order:stroke markers fill"
       d="m 1395.3489,2103.0888 c -109.6323,-83.3311 -207.4358,-118.5926 -328.935,-118.5926 -72.61995,0 -72.74555,-0.04 -90.67528,-29.0512 -55.63003,-90.0112 -125.24026,-268.7443 -125.24026,-321.5701 0,-14.9998 6.73277,-24.4701 21.34694,-30.0264 65.89595,-25.0536 308.6467,-58.1777 349.0073,-47.6232 10.7016,2.7985 19.4575,9.6599 19.4575,15.2474 0,15.1523 59.7521,102.5971 96.3182,140.9578 42.8567,44.9601 126.5908,98.5405 211.0034,135.0185 l 69.2011,29.9044 30.1327,99.1837 c 21.9562,72.2704 27.7065,103.0336 21.1914,113.372 -10.0447,15.9396 -141.0039,52.97 -188.6441,53.3416 -23.3543,0.1821 -44.1281,-9.7309 -84.1639,-40.1619 z"
       id="path1280"
       transform="matrix(0.75000002,0,0,-0.75000002,0,4000.0001)" />
    <path
       style="fill:#00ffff;stroke-width:8.85936;paint-order:stroke markers fill"
       d="m 1582.6699,1726.4234 c -134.1847,-53.0535 -234.3743,-177.5483 -267.063,-331.8503 -13.3105,-62.8298 -18.0508,-261.0908 -7.5035,-313.8274 l 5.7778,-28.8889 72.6189,5.582 c 80.5582,6.1922 228.1094,40.8583 277.6112,65.2228 29.0466,14.2966 33.0299,20.7832 42.7408,69.6018 16.2711,81.798 54.7113,169.2253 101.7029,231.3098 l 42.3406,55.9396 -77.1643,0.1356 c -42.4403,0.074 -81.993,3.2044 -87.8948,6.955 -20.3832,12.9536 -36.74,69.3113 -46.8914,161.565 -5.6031,50.9208 -10.8773,93.1866 -11.7202,93.9241 -0.843,0.7374 -20.8928,-6.3137 -44.555,-15.6692 z"
       id="path1282"
       transform="matrix(0.75000002,0,0,-0.75000002,0,4000.0001)" />
    <path
       style="fill:#00ffff;stroke-width:8.85936;paint-order:stroke markers fill"
       d="m 2263.566,2333.0682 c -9.7453,-2.0608 -26.7465,-5.6755 -37.7804,-8.0326 -11.0339,-2.3571 -41.2264,-23.4526 -67.0943,-46.8787 -83.9235,-76.0015 -190.6077,-139.0678 -271.8716,-160.7168 -55.7506,-14.8522 -67.6429,-28.7404 -94.2049,-110.015 -20.4503,-62.5738 -23.9391,-90.4342 -27.5276,-219.8237 -2.2601,-81.4926 -1.6032,-158.153 1.4596,-170.3565 5.1952,-20.6993 8.3843,-21.8668 47.5288,-17.3996 168.8014,19.2637 293.8951,54.767 383.3077,108.7878 60.6466,36.6411 67.364,48.1576 69.5641,119.2623 1.6201,52.3572 41.7149,161.9854 90.0935,246.336 43.6822,76.1622 43.8451,76.7437 43.8451,156.529 0,108.9268 0.3692,108.3202 -65.1782,107.0824 -29.9327,-0.5652 -62.3965,-2.7138 -72.1418,-4.7746 z"
       id="path1284"
       transform="matrix(0.75000002,0,0,-0.75000002,0,4000.0001)" />
    <path
       style="fill:#00ffff;stroke-width:8.85936;paint-order:stroke markers fill"
       d="m 2189.7297,1554.9253 c -203.0581,-97.313 -324.2296,-225.3654 -356.7517,-377.0103 -12.2171,-56.9667 -5.5567,-167.1241 14.7078,-243.25274 18.3405,-68.90093 91.7556,-243.63234 102.3645,-243.63234 19.3342,0 185.236,90.02213 235.3488,127.70564 164.756,123.8922 231.409,263.93524 208.2843,437.62124 -16.4286,123.3923 -94.6351,329.4683 -125.0344,329.4683 -7.9432,0 -43.4569,-13.905 -78.9193,-30.8998 z"
       id="path1286"
       transform="matrix(0.75000002,0,0,-0.75000002,0,4000.0001)" />
    <path
       style="fill:#00ffff;stroke-width:8.85936;paint-order:stroke markers fill"
       d="m 2530.2946,1199.7184 c -2.9577,-7.7075 -5.3776,-23.8224 -5.3776,-35.8109 0,-54.9691 -29.7929,-163.96692 -63.1705,-231.11039 l -36.1598,-72.74001 20.402,-33.57228 c 39.383,-64.80608 91.9613,-131.29445 156.0195,-197.2957 l 64.6585,-66.61989 64.6586,66.61989 c 64.2531,66.20211 116.6128,132.46053 156.4126,197.93185 l 20.7952,34.20844 -32.0853,59.40368 c -32.7174,60.57398 -67.7484,183.94171 -68.1049,239.84281 -0.3517,55.1558 -9.5632,57.027 -65.7921,13.3643 -32.2366,-25.0323 -60.4651,-39.9424 -75.6208,-39.9424 -23.6066,0 -81.135,35.445 -105.4455,64.9681 -15.2273,18.4923 -24.2986,18.7112 -31.1899,0.7525 z"
       id="path1288"
       transform="matrix(0.75000002,0,0,-0.75000002,0,4000.0001)" />
    <path
       style="fill:#00ffff;stroke-width:8.85936;paint-order:stroke markers fill"
       d="m 2596.3595,2168.3279 c -69.1062,-69.3535 -144.3891,-176.7458 -178.5513,-254.7066 -18.6865,-42.6439 -21.3439,-61.9974 -21.2884,-155.0387 0.057,-95.5367 2.473,-111.948 23.8364,-161.9143 13.0752,-30.5811 41.627,-82.4084 63.4485,-115.1717 47.4541,-71.2485 164.1718,-196.9513 182.862,-196.9391 19.1105,0.013 134.2192,123.6589 181.9245,195.4181 64.8952,97.6162 86.2545,158.2628 90.8016,257.8182 3.0036,65.7627 0.3206,96.4679 -11.612,132.8903 -20.387,62.2283 -57.1363,134.268 -96.4734,189.1166 -32.4902,45.3019 -154.2038,172.7575 -164.9746,172.7575 -3.2845,0 -34.7725,-28.9036 -69.9733,-64.2303 z"
       id="path1290"
       transform="matrix(0.75000002,0,0,-0.75000002,0,4000.0001)" />
    <path
       style="fill:#00ffff;stroke-width:8.85936;paint-order:stroke markers fill"
       d="m 3030.6639,1543.7431 c -56.4384,-115.9351 -98.2164,-268.6577 -98.2164,-359.0373 0,-130.0898 77.0045,-261.85689 212.5926,-363.78034 64.4281,-48.43149 227.1981,-132.90483 240.3862,-124.75413 25.0208,15.46367 95.6178,201.79974 114.7297,302.82114 l 10.4943,55.47083 -57.7389,52.9073 c -31.7564,29.099 -70.6009,72.9508 -86.321,97.4485 -35.3931,55.1554 -78.247,164.0051 -92.4032,234.706 l -10.6675,53.2767 -90.5905,46.5116 c -49.8248,25.5814 -97.608,46.5117 -106.1849,46.5117 -9.8224,0 -23.177,-15.5759 -36.0804,-42.082 z"
       id="path1292"
       transform="matrix(0.75000002,0,0,-0.75000002,0,4000.0001)" />
    <path
       style="fill:#00ffff;stroke-width:8.85936;paint-order:stroke markers fill"
       d="m 2937.471,2332.7936 c -2.763,-7.2001 -5.0235,-51.285 -5.0235,-97.9665 0,-84.4847 0.1817,-85.1854 39.4661,-152.1939 53.4081,-91.0998 81.9969,-170.6556 93.0751,-259.0055 7.4433,-59.362 13.1717,-76.9634 29.169,-89.6261 38.4951,-30.4708 162.4147,-85.251 232.5312,-102.7932 98.1718,-24.5612 228.2614,-38.1073 236.8177,-24.6596 3.5988,5.6562 6.6044,72.437 6.679,148.4017 0.106,107.9007 -3.614,152.7787 -17.0033,205.1306 -53.8481,210.5439 -194.0165,322.4136 -456.8367,364.6059 -135.3478,21.7283 -153.2961,22.6441 -158.8746,8.1066 z"
       id="path1294"
       transform="matrix(0.75000002,0,0,-0.75000002,0,4000.0001)" />
    <path
       style="fill:#00ffff;stroke-width:8.85936;paint-order:stroke markers fill"
       d="m 3699.5511,1716.2845 c -2.4102,-15.7173 -6.869,-58.1739 -9.9085,-94.3481 -7.0068,-83.3925 -25.7782,-131.9844 -53.6929,-138.9906 -11.5371,-2.8956 -70.8913,-3.8559 -131.8982,-2.1341 -83.1462,2.3468 -110.9211,0.4216 -110.9195,-7.6884 0.01,-26.8096 56.4515,-161.9233 85.0148,-203.4974 81.1865,-118.1673 248.1395,-193.2359 471.1139,-211.8312 l 70.2082,-5.8552 5.7695,28.8476 c 10.4715,52.3574 5.798,250.9598 -7.3679,313.0981 -15.832,74.7222 -47.8034,145.9189 -91.1651,203.0145 -34.8346,45.8676 -122.9103,109.2657 -185.4806,133.5113 l -37.2914,14.4502 z"
       id="path1296"
       transform="matrix(0.75000002,0,0,-0.75000002,0,4000.0001)" />
    <path
       style="fill:#00ffff;stroke-width:8.85936;paint-order:stroke markers fill"
       d="m 3740.057,2121.8541 c -40.6431,-11.4658 -76.4251,-23.3755 -79.5155,-26.4659 -7.2122,-7.2121 30.1773,-150.0396 49.8326,-190.3606 12.1838,-24.994 26.965,-35.8766 79.0519,-58.2022 35.2364,-15.103 83.1831,-39.8474 106.5483,-54.9875 75.3551,-48.8285 196.899,-186.2761 197.0112,-222.7898 0.058,-18.8015 205.5673,-7.6467 295.8696,16.0594 87.8589,23.0647 96.946,30.2519 89.7997,71.0243 -10.6857,60.9652 -49.7781,165.2398 -91.5505,244.2005 l -42.1817,79.7342 -97.1567,5.4284 c -126.5306,7.0696 -186.4482,29.4639 -308.8794,115.4439 -71.7642,50.3981 -88.1949,52.1264 -198.8295,20.9153 z"
       id="path1298"
       transform="matrix(0.75000002,0,0,-0.75000002,0,4000.0001)" />
    <path
       style="fill:#008080;stroke-width:8.85936;paint-order:stroke markers fill"
       d="m 3611.5768,2745.3738 c -53.0553,-27.9897 -142.4023,-42.948 -257.5342,-43.1158 -103.261,-0.1505 -106.5086,-0.7641 -150.6091,-28.4565 -81.7059,-51.3063 -111.1074,-77.5677 -105.145,-93.9155 3.0294,-8.306 23.3686,-40.3695 45.1983,-71.2522 41.7302,-59.0363 48.5844,-63.4676 166.763,-107.8156 78.6546,-29.5161 152.1154,-73.646 218.5283,-131.2758 37.8908,-32.8798 47.5777,-36.9842 87.2868,-36.9842 51.3979,0 183.276,41.4698 245.2154,77.1092 78.5389,45.1908 169.7276,109.5198 169.7276,119.7343 0,18.9985 -126.0788,176.006 -178.5434,222.3423 -66.5312,58.7599 -154.849,112.4871 -184.0814,111.9841 -12.5165,-0.2153 -38.0793,-8.4748 -56.8063,-18.3543 z"
       id="path1300"
       transform="matrix(0.75000002,0,0,-0.75000002,0,4000.0001)" />
    <path
       style="fill:#008080;stroke-width:8.85936;paint-order:stroke markers fill"
       d="m 3408.426,3396.0752 c -26.4398,-10.9641 -41.1273,-27.0863 -70.2052,-77.0629 -24.2449,-41.6699 -74.1932,-101.3824 -146.6275,-175.2909 -100.0805,-102.1174 -111.3749,-116.9703 -126.9155,-166.9023 -27.0577,-86.9367 -24.9681,-94.7667 29.453,-110.3586 66.0904,-18.9353 206.2248,-40.275 263.5659,-40.1359 183.5065,0.4452 320.209,88.4895 410.8088,264.5847 44.886,87.243 99.19,240.9389 91.8692,260.0164 -17.3141,45.12 -367.6267,80.1161 -451.9487,45.1495 z"
       id="path1371"
       transform="matrix(0.75000002,0,0,-0.75000002,0,4000.0001)" />
    <path
       style="fill:#008080;stroke-width:8.85936;paint-order:stroke markers fill"
       d="m 3008.4973,3900.5466 c -108.7827,-61.8342 -223.5618,-157.3749 -249.6332,-207.7915 -10.7341,-20.7574 -11.4912,-35.0963 -3.9945,-75.65 13.6737,-73.9676 11.2981,-241.381 -4.5112,-317.9189 l -13.7614,-66.6228 36.5866,-68.1089 c 20.1225,-37.4599 40.0468,-71.6745 44.2762,-76.0324 10.4867,-10.8056 50.5032,6.0685 146.39,61.7295 140.1865,81.3764 213.3077,155.588 269.6764,273.6981 l 26.5922,55.7188 -8.135,118.4661 c -4.5744,66.6161 -14.8972,139.0318 -23.5854,165.4543 -23.4516,71.3213 -86.0503,191.9033 -101.0446,194.6393 -7.309,1.3336 -60.7942,-24.5781 -118.8561,-57.5816 z"
       id="path1373"
       transform="matrix(0.75000002,0,0,-0.75000002,0,4000.0001)" />
    <path
       style="fill:#008080;stroke-width:8.85936;paint-order:stroke markers fill"
       d="m 2157.6048,3892.6453 c -40.0601,-82.1542 -72.4519,-205.6369 -80.7413,-307.7992 l -6.1735,-76.0856 92.7813,-91.0358 c 70.7717,-69.4403 105.8077,-112.5343 147.6944,-181.6628 54.6855,-90.2515 55.1887,-90.7596 121.4244,-122.6177 36.5813,-17.5949 71.465,-30.0899 77.5193,-27.7666 12.5717,4.8242 59.7898,98.3941 92.5619,183.4255 18.5757,48.1971 22.8951,77.3485 26.4926,178.8006 4.2582,120.0827 4.0523,121.7376 -22.0462,177.1872 -32.9342,69.9728 -93.7224,144.8678 -163.2276,201.1072 -54.1707,43.8315 -215.6968,133.9349 -240.1018,133.9349 -7.752,0 -26.9664,-28.0778 -46.1835,-67.4877 z"
       id="path1375"
       transform="matrix(0.75000002,0,0,-0.75000002,0,4000.0001)" />
    <path
       style="fill:#008080;stroke-width:8.85936;paint-order:stroke markers fill"
       d="m 1590.2548,3393.1775 c -92.0385,-21.0134 -119.6014,-32.0968 -119.6014,-48.0933 0,-31.3041 49.69,-167.0188 89.4502,-244.3089 23.813,-46.2902 62.2656,-105.4152 85.4502,-131.389 l 42.1539,-47.2251 115.8754,-7.5979 c 133.6852,-8.7656 141.6483,-10.3731 244.4986,-49.3578 83.0679,-31.4863 72.6775,-31.5882 192.2096,1.8843 l 47.6003,13.3294 -4.3852,37.0884 c -5.7914,48.9816 -62.1029,190.1082 -106.2,266.1562 -42.3602,73.0526 -122.0582,155.1112 -175.7745,180.9807 -101.3215,48.7959 -270.9737,60.5659 -411.2771,28.533 z"
       id="path1377"
       transform="matrix(0.75000002,0,0,-0.75000002,0,4000.0001)" />
    <path
       style="fill:#008080;stroke-width:8.85936;paint-order:stroke markers fill"
       d="m 1677.6801,2765.5462 c -72.8439,-25.1766 -143.1782,-71.8815 -215.6132,-143.1762 -66.2475,-65.2046 -150.8819,-174.0224 -150.8819,-193.995 0,-13.9225 121.9119,-92.4255 209.3853,-134.8298 169.1052,-81.9769 320.4189,-76.5544 461.884,16.552 79.3168,52.203 256.3949,253.2232 247.3578,280.802 -11.0655,33.769 -227.4471,152.7278 -321.8993,176.9686 -72.124,18.5105 -172.899,17.4942 -230.2327,-2.3216 z"
       id="path1379"
       transform="matrix(0.75000002,0,0,-0.75000002,0,4000.0001)" />
    <path
       style="fill:#008080;stroke-width:8.85936;paint-order:stroke markers fill"
       d="m 2236.6704,2324.0074 c -9.9199,-1.9749 -48.4958,-28.3422 -85.7241,-58.5941 -83.2531,-67.6518 -148.8297,-107.8587 -221.566,-135.8485 -92.9845,-35.7814 -98.4374,-40.0693 -120.0846,-94.428 -30.6926,-77.0729 -37.4241,-128.6276 -37.4241,-286.6228 v -144.9702 h 25.4176 c 88.7408,0 273.624,47.3121 365.3077,93.4833 75.0488,37.794 92.5837,60.1099 100.212,127.5356 7.8851,69.6945 29.4449,130.7362 85.0207,240.7165 44.501,88.0639 45.4627,91.6244 45.4627,168.3122 0,43.0899 -2.5134,82.412 -5.5854,87.3825 -5.297,8.5708 -112.416,10.7223 -151.0365,3.0335 z"
       id="path1381"
       transform="matrix(0.75000002,0,0,-0.75000002,0,4000.0001)" />
    <path
       style="fill:#008080;stroke-width:8.85936;paint-order:stroke markers fill"
       d="m 2592.1731,2152.5395 c -78.2104,-81.8619 -146.4675,-181.8988 -173.8554,-254.8007 -16.4868,-43.8848 -18.5519,-64.6034 -15.637,-156.875 3.2093,-101.5867 4.7764,-109.0688 35.2562,-168.3278 55.1272,-107.1786 196.9336,-279.0697 230.2264,-279.0697 33.6063,0 177.8513,179.5232 227.7888,283.4994 29.6542,61.7436 32.1385,73.387 35.1104,164.5507 2.9479,90.4288 1.291,102.8727 -21.1741,159.0266 -38.6294,96.5582 -78.9806,157.7601 -160.4737,243.3954 -41.7463,43.8683 -78.907,79.7604 -82.5793,79.7604 -3.6724,0 -37.2704,-32.0217 -74.6623,-71.1593 z"
       id="path1383"
       transform="matrix(0.75000002,0,0,-0.75000002,0,4000.0001)" />
    <path
       style="fill:#00d5d5;fill-opacity:1;stroke-width:8.85936;paint-order:stroke markers fill"
       d="m 2939.8526,2287.9292 c -3.1617,-110.7481 1.7438,-137.3065 37.5171,-203.1203 50.022,-92.0275 69.7337,-146.603 89.0287,-246.4921 11.1669,-57.8102 22.4212,-92.6871 32.3895,-100.3745 24.5171,-18.9071 98.6765,-55.1708 160.1194,-78.2979 99.1781,-37.3305 285.4485,-67.7522 297.3118,-48.5569 3.1866,5.1561 5.7737,73.3627 5.7491,151.5702 -0.051,162.9258 -10.796,218.8976 -60.0594,312.8662 -70.2264,133.9548 -195.6151,207.8454 -417.5178,246.04 -149.088,25.6614 -142.8039,27.1238 -144.5384,-33.6347 z"
       id="path1385"
       transform="matrix(0.75000002,0,0,-0.75000002,0,4000.0001)" />
    <path
       style="fill:#00d5d5;fill-opacity:1;stroke-width:8.85936;paint-order:stroke markers fill"
       d="m 3584.5223,2731.3603 c -43.9271,-18.4067 -74.8759,-23.1766 -194.4075,-29.9625 -136.3122,-7.7385 -144.0069,-9.19 -186.9585,-35.2672 -24.6373,-14.958 -58.686,-38.5597 -75.6637,-52.4482 l -30.8685,-25.2518 41.387,-60.5497 c 46.0178,-67.3249 60.3238,-77.7409 162.1992,-118.0953 90.0482,-35.6695 147.3891,-68.4624 216.973,-124.0858 51.7713,-41.3844 58.656,-44.2745 105.2085,-44.1637 87.6747,0.2086 237.9781,62.9817 353.1341,147.4839 25.4944,18.7079 46.414,38.8644 46.488,44.7922 0.2056,16.4427 -138.0743,184.6905 -182.4829,222.0307 -64.2475,54.0214 -145.4326,99.5267 -175.5776,98.4133 -14.9528,-0.5522 -50.6968,-10.8554 -79.4311,-22.8959 z"
       id="path2079"
       transform="matrix(0.75000002,0,0,-0.75000002,0,4000.0001)" />
    <path
       style="fill:#00d5d5;fill-opacity:1;stroke-width:8.85936;paint-order:stroke markers fill"
       d="m 3415.2825,3394.1587 c -22.0574,-9.892 -43.3085,-33.884 -95.0743,-107.3369 -22.321,-31.6722 -84.438,-104.2702 -138.0379,-161.3288 -76.3296,-81.2552 -100.6483,-113.3594 -112.1893,-148.1061 -22.2764,-67.0678 -16.365,-91.285 25.6291,-104.9961 73.1757,-23.8918 195.728,-39.152 288.6646,-35.9444 85.3413,2.9455 98.5105,5.8544 159.4685,35.225 84.2754,40.6054 129.9844,80.5628 182.4655,159.5057 44.4869,66.9177 114.4118,229.8079 123.7678,288.317 5.243,32.788 3.8435,36.0269 -19.6183,45.4025 -13.8952,5.5527 -43.2042,14.3961 -65.1311,19.652 -51.7032,12.3933 -326.8876,19.9503 -349.9446,9.6101 z"
       id="path2081"
       transform="matrix(0.75000002,0,0,-0.75000002,0,4000.0001)" />
    <path
       style="fill:#00d5d5;fill-opacity:1;stroke-width:8.85936;paint-order:stroke markers fill"
       d="m 3052.0488,3917.7218 c -101.1603,-53.9697 -164.5304,-99.3079 -231.632,-165.7212 l -63.3041,-62.6548 4.7989,-152.4608 c 3.1911,-101.3834 1.0123,-178.8784 -6.5037,-231.3146 l -11.3025,-78.854 37.2058,-67.4002 c 20.4632,-37.0702 43.0391,-67.4003 50.1687,-67.4003 31.5676,0 200.5051,100.6151 264.8657,157.7477 47.3317,42.016 97.9138,109.5355 130.6692,174.4236 26.2357,51.9726 26.7073,55.1959 21.3918,146.2008 -2.9894,51.1811 -9.7535,116.9768 -15.0313,146.2127 -10.8279,59.9802 -91.6667,234.897 -108.394,234.5399 -6.0044,-0.1282 -38.824,-15.1217 -72.9325,-33.3188 z"
       id="path2083"
       transform="matrix(0.75000002,0,0,-0.75000002,0,4000.0001)" />
    <path
       style="fill:#00d5d5;fill-opacity:1;stroke-width:8.85936;paint-order:stroke markers fill"
       d="m 2179.2026,3922.4807 c -41.0962,-67.012 -83.6692,-211.8658 -96.8334,-329.4739 l -8.8647,-79.1972 95.1936,-97.99 c 56.7847,-58.4527 116.4669,-131.0248 147.9177,-179.8641 48.4477,-75.2334 57.5217,-84.3952 111.8746,-112.9568 32.5328,-17.0955 65.4554,-31.0828 73.1614,-31.0828 17.469,0 87.9257,142.4669 106.9977,216.3547 8.2429,31.9344 13.8504,95.004 14.3332,161.212 0.734,100.6524 -0.9451,112.2162 -22.5354,155.2015 -33.22,66.1395 -78.2994,124.8383 -133.9987,174.4823 -51.7867,46.1567 -228.8673,152.1073 -254.2246,152.1073 -8.45,0 -23.3096,-12.9569 -33.0214,-28.793 z"
       id="path2085"
       transform="matrix(0.75000002,0,0,-0.75000002,0,4000.0001)" />
    <path
       style="fill:#00d5d5;fill-opacity:1;stroke-width:8.85936;paint-order:stroke markers fill"
       d="m 1709.8561,3404.3878 c -55.5512,-3.231 -138.2026,-18.4794 -189.2867,-34.9216 -42.7662,-13.7649 -43.0724,-14.1349 -38.6952,-46.7693 6.0638,-45.2085 63.7236,-187.6154 104.2035,-257.359 18.3828,-31.6723 49.4206,-75.7449 68.9728,-97.9392 l 35.5496,-40.3534 127.0145,-10.01 c 109.0482,-8.5941 139.888,-14.6369 218.0254,-42.7201 l 91.0109,-32.7101 78.7384,20.2997 78.7383,20.2996 -4.5659,31.7661 c -6.3534,44.2024 -75.2357,213.88 -110.6462,272.5549 -37.6174,62.3314 -120.5977,147.6513 -166.2581,170.9455 -63.6844,32.4894 -190.7632,52.8518 -292.8013,46.9169 z"
       id="path2087"
       transform="matrix(0.75000002,0,0,-0.75000002,0,4000.0001)" />
    <path
       style="fill:#00d5d5;fill-opacity:1;stroke-width:8.85936;paint-order:stroke markers fill"
       d="m 1668.3731,2756.2803 c -65.481,-24.2404 -139.9572,-75.8708 -207.0066,-143.5069 -64.4493,-65.0133 -141.3222,-163.2399 -141.3222,-180.5787 0,-30.4561 243.4887,-162.0917 334.8769,-181.042 112.791,-23.3885 223.9934,-2.0417 318.6533,61.1697 90.0658,60.1437 258.0487,250.0403 246.8959,279.1041 -7.977,20.7877 -133.1636,97.4833 -227.1149,139.1418 -79.9106,35.4328 -89.0887,37.4549 -181.6168,40.0135 -78.956,2.1833 -106.1673,-0.5312 -143.3656,-14.3015 z"
       id="path2089"
       transform="matrix(0.75000002,0,0,-0.75000002,0,4000.0001)" />
    <path
       style="fill:#00d5d5;fill-opacity:1;stroke-width:8.85936;paint-order:stroke markers fill"
       d="m 2155.6107,2262.0605 c -95.359,-72.7588 -155.1119,-108.2693 -244.7725,-145.4658 -59.2158,-24.5662 -71.7149,-33.594 -86.421,-62.4203 -30.6985,-60.1742 -41.3972,-124.385 -48.0187,-288.1969 l -6.5052,-160.9329 56.3601,4.8278 c 73.4074,6.2881 197.1633,37.5746 289.0063,73.0632 89.0228,34.3989 131.2881,70.9723 138.9974,120.2786 12.3845,79.2067 34.7604,146.7634 80.801,243.9513 51.3249,108.3427 63.7093,162.7176 53.1294,233.2693 l -6.1059,40.717 h -74.5123 -74.5124 z"
       id="path2091"
       transform="matrix(0.75000002,0,0,-0.75000002,0,4000.0001)" />
    <path
       style="fill:#00d5d5;fill-opacity:1;stroke-width:8.85936;paint-order:stroke markers fill"
       d="m 2596.2294,2147.6425 c -67.8462,-71.4244 -147.4727,-187.1726 -171.7789,-249.7043 -10.8777,-27.9848 -14.7051,-66.4413 -14.7051,-147.7505 0,-108.1604 0.4908,-110.8607 30.6798,-168.7788 58.8503,-112.9055 193.3292,-279.0833 225.8472,-279.0833 33.6472,0 164.7484,161.3245 223.1878,274.6401 28.0098,54.3118 29.8684,63.5943 32.6912,163.2674 2.7567,97.3372 1.1337,110.4206 -20.5545,165.7002 -12.9511,33.0102 -39.0334,83.9783 -57.9607,113.2625 -33.2982,51.5188 -163.7026,195.6437 -177.0186,195.6437 -3.6067,0 -35.2814,-30.2387 -70.3882,-67.197 z"
       id="path2093"
       transform="matrix(0.75000002,0,0,-0.75000002,0,4000.0001)" />
    <path
       style="fill:#c5ffff;fill-opacity:1;stroke-width:8.859;stroke-dasharray:none;paint-order:stroke markers fill"
       d="m 2615.482,2940.8513 c -173.0557,-34.5374 -274.8031,-226.879 -202.9927,-383.7337 80.2292,-175.2436 297.9279,-221.8546 442.6611,-94.7772 17.9499,15.7603 45.1828,54.1407 60.5175,85.2899 26.0241,52.8623 27.6133,61.5159 23.86,129.9175 -2.8668,52.2456 -9.6523,84.1972 -23.6371,111.3027 -56.2076,108.9422 -186.3108,174.7718 -300.4088,152.0008 z"
       id="path2523"
       transform="matrix(0.75000002,0,0,-0.75000002,0,4000.0001)" />
    <path
       style="fill:#45ffff;fill-opacity:1;stroke-width:78.4851;stroke-dasharray:none;paint-order:stroke markers fill"
       d="m 1324.8842,4268.1372 c -11.4264,-6.3945 -13.6992,-30.1061 -13.6992,-142.9192 0,-164.0545 9.406,-220.8901 50.42,-304.6623 74.2188,-151.5936 256.4602,-252.8061 477.7136,-265.3104 l 89.5954,-5.0636 5.3469,30.0033 c 2.9408,16.5019 7.9954,60.593 11.2325,97.9804 l 5.8855,67.9771 -72.2504,80.5821 c -113.193,126.2458 -155.1567,201.8921 -178.3307,321.4696 l -9.8336,50.7412 -68.0734,21.3793 c -118.4019,37.1855 -272.7532,61.955 -298.0066,47.8225 z"
       id="path5663"
       transform="matrix(0.75000002,0,0,-0.75000002,0,4000.0001)" />
    <path
       style="fill:#45ffff;fill-opacity:1;stroke-width:78.4851;stroke-dasharray:none;paint-order:stroke markers fill"
       d="m 2591.3827,4684.3855 c -80.0387,-86.0803 -138.8576,-171.5666 -168.8751,-245.4401 -18.6002,-45.7755 -21.6216,-67.5 -21.6216,-155.4664 0,-101.3876 0.2963,-102.8446 34.9107,-171.6893 40.4941,-80.5387 121.0885,-190.0873 186.5279,-253.5393 l 45.6841,-44.2968 74.1519,77.4092 74.1519,77.4092 -4.9419,121.9264 c -5.7516,141.9011 4.7108,200.8399 55.2959,311.5021 30.6336,67.0156 31.3306,70.7465 18.0236,96.4793 -29.4397,56.9301 -200.3949,258.7954 -219.168,258.7954 -3.3987,0 -36.7615,-32.8903 -74.1394,-73.0897 z"
       id="path6010"
       transform="matrix(0.75000002,0,0,-0.75000002,0,4000.0001)" />
    <path
       style="fill:#45ffff;fill-opacity:1;stroke-width:78.4851;stroke-dasharray:none;paint-order:stroke markers fill"
       d="m 3831.6723,4256.1938 c -211.5472,-51.2647 -314.6904,-120.074 -380.5227,-253.8561 -42.456,-86.2776 -57.701,-165.2545 -57.7407,-299.1261 -0.049,-164.7467 -7.6575,-154.2594 106.8696,-147.3035 110.6211,6.7186 187.0513,27.6615 283.9118,77.7954 88.2165,45.6599 140.4569,98.2057 183.8723,184.947 47.296,94.4945 54.9825,139.5906 52.1057,305.6999 l -2.4495,141.4305 -66.4451,1.6471 c -36.5449,0.906 -90.3655,-4.1494 -119.6014,-11.2342 z"
       id="path6012"
       transform="matrix(0.75000002,0,0,-0.75000002,0,4000.0001)" />
    <path
       style="fill:#45ffff;fill-opacity:1;stroke-width:78.4851;stroke-dasharray:none;paint-order:stroke markers fill"
       d="m 4127.6724,3766.9922 c -26.1648,-2.1927 -34.3025,-7.9203 -45.947,-32.339 -21.8553,-45.8311 -113.4087,-147.1268 -168.5452,-186.4803 -27.3074,-19.4906 -49.8411,-37.6019 -50.075,-40.2473 -0.2338,-2.6455 22.0046,-12.434 49.4188,-21.7524 99.727,-33.8982 104.5308,-46.5937 74.2705,-196.28 -9.6995,-47.9794 -17.6729,-92.5056 -17.7187,-98.947 -0.1797,-25.2339 168.8537,9.0352 234.5914,47.56 105.9007,62.0619 206.7785,212.945 252.3713,377.4721 24.2551,87.5274 23.4323,94.7008 -12.5885,109.7513 -56.6231,23.6586 -239.9651,47.6159 -315.7776,41.2626 z"
       id="path6014"
       transform="matrix(0.75000002,0,0,-0.75000002,0,4000.0001)" />
    <path
       style="fill:#45ffff;fill-opacity:1;stroke-width:78.4851;stroke-dasharray:none;paint-order:stroke markers fill"
       d="m 4407.5306,2566.5539 c -43.6051,-15.2656 -74.7956,-18.6883 -173.5894,-19.0489 l -120.4333,-0.4396 29.6249,-53.8919 c 17.9122,-32.585 29.6248,-66.3284 29.6248,-85.3478 0,-34.4328 -15.8586,-51.7095 -122.245,-133.1763 -30.2182,-23.14 -54.9422,-46.1649 -54.9422,-51.1665 0,-15.8062 108.4322,-78.9861 167.0462,-97.3324 68.5799,-21.4656 170.9289,-23.1575 245.2675,-4.0544 68.917,17.7099 167.7603,64.7172 241.7032,114.9477 103.7866,70.5038 98.2319,57.2699 51.5165,122.7358 -58.3271,81.738 -201.9303,227.3543 -223.1402,226.2683 -9.5023,-0.4865 -41.1971,-9.2588 -70.433,-19.494 z"
       id="path6016"
       transform="matrix(0.75000002,0,0,-0.75000002,0,4000.0001)" />
    <path
       style="fill:#45ffff;fill-opacity:1;stroke-width:78.4851;stroke-dasharray:none;paint-order:stroke markers fill"
       d="m 3695.8381,1642.0192 c -5.6853,-52.0677 -17.3155,-108.9354 -25.8449,-126.3726 l -15.508,-31.7041 -123.9283,-4.4297 c -103.4926,-3.6993 -124.3686,-6.7325 -126.5991,-18.3946 -3.7718,-19.7215 51.776,-148.0023 84.9939,-196.2828 70.2399,-102.0902 238.9993,-178.3496 444.452,-200.8399 41.3343,-4.5248 78.2114,-6.3368 81.9491,-4.0268 12.8506,7.9421 7.3627,287.567 -6.825,347.7557 -29.099,123.4471 -115.0931,237.7176 -221.6139,294.4845 -83.6367,44.5715 -79.3259,47.4204 -91.0758,-60.1897 z"
       id="path6018"
       transform="matrix(0.75000002,0,0,-0.75000002,0,4000.0001)" />
    <path
       style="fill:#45ffff;fill-opacity:1;stroke-width:78.4851;stroke-dasharray:none;paint-order:stroke markers fill"
       d="m 2529.5647,1162.7907 c -9.7372,-77.352 -30.7619,-154.2652 -62.1389,-227.31848 -17.1063,-39.8276 -31.1024,-75.58496 -31.1024,-79.46081 0,-17.07974 96.5119,-144.25037 160.3074,-211.23188 l 69.8619,-73.35094 68.858,71.39862 c 37.8719,39.26924 91.3635,104.29439 118.8703,144.50034 l 50.0124,73.10174 -21.2227,37.11648 c -35.7124,62.45747 -82.7339,227.01573 -83.3867,291.82303 -0.1341,13.3146 -19.1676,5.9877 -63.2901,-24.3632 -24.7925,-17.0543 -55.8096,-31.0078 -68.9268,-31.0078 -23.2495,0 -98.9361,41.7153 -110.947,61.1493 -12.2968,19.8967 -21.7492,8.525 -26.8954,-32.3564 z"
       id="path6020"
       transform="matrix(0.75000002,0,0,-0.75000002,0,4000.0001)" />
    <path
       style="fill:#45ffff;fill-opacity:1;stroke-width:78.4851;stroke-dasharray:none;paint-order:stroke markers fill"
       d="m 2200.2697,1555.3919 c -144.5772,-66.2835 -284.0034,-190.0357 -334.0052,-296.4569 -36.9338,-78.608 -43.5295,-201.0863 -16.5583,-307.47789 17.9294,-70.72465 81.5434,-228.44306 99.3034,-246.20302 6.9504,-6.95047 28.709,0.16841 77.9355,25.49866 208.0252,107.0424 325.978,231.78399 357.3086,377.87355 21.4127,99.8438 -11.0433,276.2384 -74.7622,406.3239 -32.8155,66.9947 -43.0439,70.782 -109.2218,40.4417 z"
       id="path6022"
       transform="matrix(0.75000002,0,0,-0.75000002,0,4000.0001)" />
    <path
       style="fill:#45ffff;fill-opacity:1;stroke-width:78.4851;stroke-dasharray:none;paint-order:stroke markers fill"
       d="m 1370.947,2081.8967 c -102.5032,-68.5393 -156.2764,-87.6199 -276.2455,-98.0217 -112.12108,-9.7214 -104.37648,-4.2318 -156.215,-110.7298 -43.85657,-90.0997 -79.12878,-193.0868 -79.12878,-231.0386 0,-27.6567 2.47109,-29.9083 46.51163,-42.3811 58.17338,-16.4755 221.45005,-40.4785 275.34785,-40.4785 40.4615,0 40.5698,0.084 80.9066,62.4378 69.0799,106.7867 153.7576,174.2513 294.9872,235.0232 l 55.4499,23.8604 22.6502,74.2585 c 12.4577,40.8422 24.8231,87.6481 27.4788,104.0132 4.6201,28.4701 3.1607,30.3608 -33.8033,43.7938 -129.1275,46.9257 -160.5216,44.4018 -257.9396,-20.7372 z"
       id="path6024"
       transform="matrix(0.75000002,0,0,-0.75000002,0,4000.0001)" />
    <path
       style="fill:#77ffff;fill-opacity:1;stroke-width:78.4851;stroke-dasharray:none;paint-order:stroke markers fill"
       d="m 899.22483,3198.8635 c -78.83229,-28.0984 -296.92949,-151.0641 -296.70332,-167.2848 0.17189,-12.3282 94.62043,-131.8441 152.13716,-192.5156 84.28154,-88.9042 86.22049,-89.6173 182.32943,-67.0536 111.5159,26.1808 214.0976,24.8887 329.2404,-4.1471 l 90.5548,-22.8354 45.8608,27.8066 c 25.2235,15.2936 64.9635,41.6754 88.3112,58.6261 l 42.4502,30.8196 -19.7133,35.075 c -29.1344,51.8377 -147.944,184.685 -203.1298,227.1303 -26.4571,20.3491 -74.0175,49.2496 -105.6897,64.2233 -54.2667,25.6559 -63.4581,27.1882 -159.4685,26.5847 -73.92343,-0.4646 -114.03873,-4.9731 -146.17937,-16.4291 z"
       id="path6026"
       transform="matrix(0.75000002,0,0,-0.75000002,0,4000.0001)" />
    <path
       style="fill:#77ffff;fill-opacity:1;stroke-width:78.4851;stroke-dasharray:none;paint-order:stroke markers fill"
       d="m 2603.3417,4688.8152 c -158.9795,-165.7075 -213.7496,-291.9789 -198.7088,-458.1192 8.7497,-96.6492 82.4191,-222.0569 206.32,-351.2192 l 56.1245,-58.5078 71.0491,72.7906 71.0491,72.7905 0.4581,139.8957 c 0.4615,140.9435 13.9446,230.7539 36.8261,245.297 5.8757,3.7345 7.8071,6.851 4.2919,6.9257 -3.5152,0.074 3.9263,23.926 16.5367,53.0032 14.0834,32.4736 20.8756,60.6683 17.6074,73.0897 -9.8576,37.466 -196.5639,263.8545 -217.6051,263.8545 -3.617,0 -32.394,-26.9103 -63.949,-59.8007 z"
       id="path7063"
       transform="matrix(0.75000002,0,0,-0.75000002,0,4000.0001)" />
    <path
       style="fill:#77ffff;fill-opacity:1;stroke-width:78.4851;stroke-dasharray:none;paint-order:stroke markers fill"
       d="m 3855.552,4260.5369 c -3.3885,-2.8842 -34.0679,-12.3009 -68.1765,-20.9261 -100.1493,-25.3253 -205.2541,-79.9877 -258.3296,-134.3509 -75.4857,-77.3172 -126.6244,-208.2856 -126.9215,-325.0517 -0.072,-28.3053 -3.2698,-49.5243 -7.1063,-47.1532 -7.9985,4.9434 -6.9005,-49.7548 2.3488,-117.0052 4.1286,-30.0187 11.7129,-48.8976 21.816,-54.3046 23.1029,-12.3643 177.4863,5.904 253.269,29.9694 86.7861,27.5598 167.9976,74.5104 218.6008,126.3792 45.1937,46.324 100.1352,143.2238 109.4949,193.1152 3.2198,17.1629 8.4005,31.2005 11.5127,31.1947 3.1122,-0.01 4.4901,71.467 3.0621,158.8284 l -2.5965,158.8389 -75.4065,2.8549 c -41.4736,1.5702 -78.1789,0.4952 -81.5674,-2.389 z"
       id="path7065"
       transform="matrix(0.75000002,0,0,-0.75000002,0,4000.0001)" />
    <path
       style="fill:#77ffff;fill-opacity:1;stroke-width:78.4851;stroke-dasharray:none;paint-order:stroke markers fill"
       d="m 4411.9603,2563.4162 c -24.3424,-8.2256 -88.6223,-15.317 -165.0693,-18.2105 l -125.2022,-4.7389 25.5344,-48.5416 c 15.2667,-29.0225 25.5344,-62.2082 25.5344,-82.5287 0,-30.6139 -5.4953,-38.7978 -55.371,-82.4608 -30.454,-26.6606 -69.3245,-60.8221 -86.3787,-75.9145 l -31.0078,-27.4407 22.1484,-18.9397 c 41.5358,-35.5184 147.5388,-79.7272 210.0543,-87.6036 104.1903,-13.1271 233.4809,16.3747 339.1328,77.3839 71.6062,41.3494 150.2108,95.483 154.5047,106.4048 6.4394,16.3788 -68.752,113.5389 -154.5677,199.7279 -83.8024,84.1668 -89.5518,86.4355 -159.3123,62.8624 z"
       id="path7067"
       transform="matrix(0.75000002,0,0,-0.75000002,0,4000.0001)" />
    <path
       style="fill:#77ffff;fill-opacity:1;stroke-width:78.4851;stroke-dasharray:none;paint-order:stroke markers fill"
       d="m 3043.929,1557.0322 c -48.1446,-74.0616 -103.6337,-273.8007 -103.5577,-372.7667 0.1342,-174.7097 120.0463,-325.79195 353.0384,-444.80779 65.1964,-33.30325 84.4621,-39.69933 94.496,-31.37192 24.8507,20.6242 104.5941,246.6047 113.0764,320.44071 2.1231,18.4814 -10.7735,36.4038 -65.7697,91.4 -78.6626,78.6626 -116.8088,148.8905 -155.3434,285.9902 l -23.7059,84.3416 -86.3923,43.3537 c -47.5158,23.8446 -92.3529,43.3537 -99.6381,43.3537 -7.2851,0 -19.0768,-8.9701 -26.2037,-19.9335 z"
       id="path7069"
       transform="matrix(0.75000002,0,0,-0.75000002,0,4000.0001)" />
    <path
       style="fill:#77ffff;fill-opacity:1;stroke-width:78.4851;stroke-dasharray:none;paint-order:stroke markers fill"
       d="m 3707.076,1708.0751 c -3.4039,-10.7249 -7.3506,-33.6485 -8.7704,-50.9413 -5.6803,-69.1848 -12.6202,-105.9065 -26.6337,-140.9298 -14.319,-35.7867 -15.7157,-36.6912 -56.6548,-36.6912 -23.0856,0 -78.1112,-2.5651 -122.2791,-5.7003 -74.9059,-5.3169 -80.5697,-7.0832 -84.2373,-26.269 -2.1626,-11.3128 -1.5214,-21.7045 1.4249,-23.0926 2.9463,-1.3882 24.3032,-41.0639 47.4598,-88.1682 76.9812,-156.5924 171.4683,-210.4443 476.1695,-271.3876 53.2599,-10.6525 79.7343,-3.6915 79.7343,20.9647 0,11.858 3.1192,21.5599 6.9316,21.5599 3.8124,0 4.1666,34.8838 0.7871,77.5194 -3.3796,42.6357 -7.4955,114.3885 -9.1465,159.4506 -1.6511,45.0622 -5.3538,81.9393 -8.2284,81.9491 -2.8746,0.01 -10.7384,16.7191 -17.4752,37.1317 -28.4758,86.2825 -106.0109,177.2239 -198.2611,232.5417 -61.3948,36.8154 -72.4412,38.4642 -80.8207,12.0629 z"
       id="path7071"
       transform="matrix(0.75000002,0,0,-0.75000002,0,4000.0001)" />
    <path
       style="fill:#77ffff;fill-opacity:1;stroke-width:78.4851;stroke-dasharray:none;paint-order:stroke markers fill"
       d="m 1552.824,1705.4369 c -110.8235,-55.4427 -198.4447,-170.8953 -228.6964,-301.3382 -9.7094,-41.866 -12.7127,-97.1642 -10.9467,-201.5505 l 2.4338,-143.8549 53.1561,2.8482 c 67.877,3.6371 231.2626,39.5774 282.0508,62.0434 36.1387,15.9859 39.9085,20.8488 50.2249,64.7893 19.6738,83.7957 52.5985,160.3437 97.3126,226.2457 l 43.5853,64.2386 -81.548,2.542 -81.5481,2.542 -15.1056,31.0077 c -8.308,17.0543 -19.9078,68.8815 -25.7771,115.1717 -5.8693,46.2901 -13.2499,89.2655 -16.4014,95.5008 -4.2772,8.4629 -21.7044,3.3453 -68.7402,-20.1858 z"
       id="path7073"
       transform="matrix(0.75000002,0,0,-0.75000002,0,4000.0001)" />
    <path
       style="fill:#77ffff;fill-opacity:1;stroke-width:78.4851;stroke-dasharray:none;paint-order:stroke markers fill"
       d="m 1107.4197,3764.6936 c -106.4716,-6.2931 -221.25564,-31.1319 -242.62737,-52.5036 -20.01167,-20.0117 33.42817,-184.3874 96.98816,-298.3261 l 30.44418,-54.5747 77.53113,-5.4587 c 92.1854,-6.4904 165.1943,-24.0673 224.2311,-53.9835 23.7529,-12.0365 44.7777,-21.8846 46.7217,-21.8846 1.9441,0 0.2569,16.9436 -3.7493,37.6523 -4.0062,20.7088 -7.4576,56.6478 -7.6698,79.8645 -0.3496,38.2505 2.3164,43.8812 28.4071,59.997 15.8361,9.7817 47.7298,24.6123 70.8749,32.957 23.145,8.3447 41.9791,17.2264 41.8535,19.7372 -0.1256,2.5108 -20.014,17.9858 -44.1963,34.389 -58.9446,39.9829 -155.6437,143.7097 -179.2284,192.2541 -10.4941,21.6001 -21.2759,38.6323 -23.9594,37.8493 -2.6836,-0.783 -54.7131,-4.3692 -115.6212,-7.9692 z"
       id="path7075"
       transform="matrix(0.75000002,0,0,-0.75000002,0,4000.0001)" />
  </g>
</svg>
